<?xml version="1.0" encoding="utf-8"?>
<!-- Generator: Adobe Illustrator 19.0.0, SVG Export Plug-In . SVG Version: 6.00 Build 0)  -->
<svg version="1.1" id="layer" xmlns="http://www.w3.org/2000/svg" xmlns:xlink="http://www.w3.org/1999/xlink" x="0px" y="0px"
	 viewBox="-153 -46 652 652" style="enable-background:new -153 -46 652 652;" xml:space="preserve">
<style type="text/css">
	.st0{fill:#005A99;}
	.st1{fill:#FFFFFF;}
	.st2{fill:#AFDFF9;}
</style>
<g id="Page-1">
	<g id="Press-grid-page---webinars" transform="translate(-113.000000, -13.000000)">
		<g id="header">
			<g id="logo" transform="translate(113.000000, 13.000000)">
				<polygon id="Fill-1" class="st0" points="-131,404 469,404 469,146.8 -131,146.8 				"/>
				<g id="Group-36" transform="translate(11.678314, 8.434338)">
					<path id="Fill-2" class="st1" d="M263.7,319.1c-3.8,3-14.2-6.9-15.2-8.2h0c-0.9-1.3-7.2-14.3-3.1-17c5.7-3.8,19.8,4,20.2,4.5
						C266,299.1,269.1,314.9,263.7,319.1 M275.1,291.6L275.1,291.6L275.1,291.6L275.1,291.6L275.1,291.6c-14.7-10-24.8-12.1-32-5.3
						c-6.8,6.4-2.8,18.3,2.8,26.5c6.1,7.9,16.2,15.4,24.3,10.9C279,318.9,280.1,308.7,275.1,291.6"/>
					<path id="Fill-4" class="st2" d="M288.2,282.1L288.2,282.1c-13-6.1-21.3-5.7-26.4-4.8c-0.4,0.1-0.8,0.3-0.6,0.4
						c0.1,0.1,0.2,0.2,0.7,0.3c6.9,2.6,13.3,5.9,18.1,10v0c2.4,5.8,3.6,13,3.9,20.3c0,0.5,0,0.6,0.1,0.7c0.1,0.2,0.4-0.1,0.6-0.5
						C287.1,304.1,290,296.3,288.2,282.1C288.2,282.1,288.2,282.1,288.2,282.1"/>
					<path id="Fill-6" class="st1" d="M298.8,274.4L298.8,274.4c-5.2-3.3-14.3-3.7-20.3-1.9c-0.5,0.1-0.8,0.3-0.7,0.4
						c0.1,0.1,0.2,0.2,0.6,0.3c7.7,1.8,11.3,3.5,14.7,5.4c0.7,3.8,1.2,7.8,0.6,15.7c0,0.3,0,0.5,0.1,0.6c0.1,0.1,0.3,0,0.6-0.5
						C297.9,289.2,300.3,280.4,298.8,274.4L298.8,274.4z"/>
					<path id="Fill-8" class="st1" d="M344.6,326.2c1.7,4.6-11,11.4-12.5,11.9c-1.5,0.5-15.8,2.4-17.1-2.3
						c-1.8-6.5,9.9-17.6,10.6-17.8C326.3,317.8,342.3,319.8,344.6,326.2 M322,306.9L322,306.9L322,306.9L322,306.9L322,306.9
						c-14,10.9-19.2,19.8-14.9,28.8c4,8.4,16.5,8.4,26.1,5.5v0c9.4-3.3,19.6-10.6,17.9-19.8C349.1,311.6,339.7,307.4,322,306.9"/>
					<path id="Fill-10" class="st2" d="M317,291.4L317,291.4c-9.8,10.5-12,18.4-12.7,23.6c0,0.4,0,0.8,0.2,0.7
						c0.1,0,0.2-0.1,0.5-0.5c4.6-5.7,9.8-10.9,15.1-14.1v0c0,0,0,0,0,0c6.3-0.5,13.5,0.6,20.6,2.5c0.5,0.1,0.6,0.2,0.7,0.1
						c0.2,0,0-0.4-0.3-0.7C337.5,299.3,331,294.1,317,291.4L317,291.4z"/>
					<path id="Fill-12" class="st1" d="M312.9,279L312.9,279c-4.7,4-8,12.5-8.1,18.7c0,0.5,0.1,0.8,0.2,0.8c0.1,0,0.2-0.2,0.4-0.5
						c4.1-6.8,6.8-9.7,9.7-12.3c3.8,0.5,7.8,1.3,15.1,4.3c0.3,0.1,0.5,0.2,0.6,0.1c0.1,0,0.1-0.3-0.3-0.7
						C326.7,284.5,319.1,279.5,312.9,279C312.9,279,312.9,279,312.9,279"/>
					<path id="Fill-14" class="st1" d="M376.3,251.4c4.9-0.2,7.5,13.9,7.5,15.5l0,0c0,1.6-2.6,15.7-7.5,15.5
						c-6.8-0.3-13.6-14.9-13.7-15.5C362.7,266.3,369.5,251.7,376.3,251.4 M351,267L351,267L351,267L351,267L351,267
						c6,16.7,12.9,24.4,22.7,23.1c9.2-1.2,13.1-13.1,13.3-23.1v0c-0.2-10-4-21.9-13.3-23.1C363.8,242.6,356.9,250.3,351,267"/>
					<path id="Fill-16" class="st2" d="M334.7,267L334.7,267c6.9,12.5,13.8,17.1,18.5,19.4c0.4,0.2,0.8,0.2,0.8,0
						c0-0.1-0.1-0.2-0.4-0.7c-4.1-6.1-7.3-12.6-8.8-18.8h0l0,0c1.5-6.1,4.7-12.6,8.8-18.8c0.3-0.4,0.4-0.5,0.3-0.7
						c0-0.2-0.4-0.1-0.8,0C348.6,249.9,341.6,254.4,334.7,267C334.7,267,334.7,267,334.7,267"/>
					<path id="Fill-18" class="st1" d="M321.7,267L321.7,267c2.3,5.7,9.4,11.4,15.3,13.5c0.5,0.2,0.8,0.2,0.8,0.1
						c0-0.1-0.1-0.3-0.3-0.6c-5.2-6-7.1-9.5-8.7-13c1.6-3.5,3.6-7,8.8-13c0.2-0.3,0.3-0.4,0.3-0.5c0-0.1-0.3-0.1-0.8,0
						C331.1,255.6,324,261.3,321.7,267L321.7,267z"/>
					<path id="Fill-20" class="st1" d="M315,198.2c1.3-4.7,15.6-2.8,17.1-2.3h0c1.5,0.5,14.2,7.3,12.5,11.9
						c-2.4,6.4-18.3,8.4-19,8.2C324.9,215.8,313.2,204.7,315,198.2 M322,227.1L322,227.1L322,227.1c17.7-0.5,27.1-4.7,29-14.5
						c1.7-9.2-8.4-16.5-17.9-19.8h0c-9.6-2.9-22.1-2.9-26.1,5.5C302.8,207.3,307.9,216.3,322,227.1"/>
					<path id="Fill-22" class="st2" d="M317,242.6L317,242.6c14.1-2.7,20.6-7.9,24.2-11.6c0.3-0.3,0.5-0.7,0.3-0.7
						c-0.1-0.1-0.2,0-0.7,0.1c-7.1,2-14.3,3-20.6,2.5h0l0,0c-5.4-3.3-10.6-8.4-15.1-14.1c-0.3-0.4-0.4-0.5-0.5-0.5
						c-0.2-0.1-0.3,0.3-0.2,0.7C305,224.1,307.2,232.1,317,242.6C317,242.5,317,242.6,317,242.6"/>
					<path id="Fill-24" class="st1" d="M313,254.9L313,254.9c6.2-0.4,13.8-5.4,17.6-10.4c0.3-0.4,0.4-0.7,0.3-0.7
						c-0.1,0-0.3,0-0.6,0.1c-7.3,3-11.2,3.8-15.1,4.3c-2.8-2.6-5.6-5.6-9.7-12.3c-0.2-0.3-0.3-0.4-0.4-0.5c-0.1-0.1-0.2,0.2-0.2,0.8
						C305,242.4,308.2,251,313,254.9C312.9,254.9,312.9,254.9,313,254.9"/>
					<path id="Fill-26" class="st1" d="M245.5,240c-4.1-2.7,2.2-15.7,3.1-17v0c0.9-1.3,11.4-11.2,15.2-8.2c5.3,4.2,2.3,20,1.9,20.6
						C265.2,236,251.1,243.8,245.5,240 M275.1,242.4L275.1,242.4L275.1,242.4c5-17,3.9-27.3-4.8-32.1c-8.2-4.5-18.3,2.9-24.3,10.9
						c-5.7,8.2-9.6,20.1-2.8,26.5C250.4,254.5,260.5,252.3,275.1,242.4"/>
					<path id="Fill-28" class="st2" d="M288.2,251.9L288.2,251.9c1.8-14.2-1.1-22-3.6-26.6c-0.2-0.4-0.5-0.6-0.6-0.5
						c-0.1,0.1-0.1,0.2-0.1,0.7c-0.3,7.3-1.5,14.5-3.9,20.3v0h0c-4.8,4.1-11.3,7.5-18.1,10c-0.5,0.2-0.6,0.2-0.7,0.3
						c-0.1,0.1,0.2,0.3,0.6,0.4C267,257.6,275.3,258,288.2,251.9C288.2,251.9,288.2,251.9,288.2,251.9"/>
					<path id="Fill-30" class="st1" d="M298.8,259.5L298.8,259.5c1.5-6-0.9-14.8-4.4-19.9c-0.3-0.5-0.5-0.6-0.6-0.5
						c-0.1,0.1-0.1,0.3-0.1,0.6c0.6,7.9,0.2,11.9-0.6,15.7c-3.4,1.9-7,3.6-14.7,5.4c-0.3,0.1-0.5,0.1-0.6,0.3
						c-0.1,0.1,0.1,0.3,0.7,0.4C284.4,263.2,293.5,262.8,298.8,259.5L298.8,259.5z"/>
					<path id="Fill-32" class="st1" d="M130.9,309.2v-75.5h-17.4v91.8h65.8v-16.3H130.9z M52.9,290.4c-3.8-9-24.3-56.8-24.3-56.8
						H10.7L50,325.4h6.2l38.7-91.8H77C77,233.6,56.7,281.4,52.9,290.4L52.9,290.4z"/>
					<path id="Fill-34" class="st1" d="M-14.9,288.1h-23.3c2-4.7,8.4-20,11.3-26.7C-23.9,268.1-17,283.3-14.9,288.1L-14.9,288.1z
						 M-20.9,233.6H-33l-39.1,91.8h18.2c0,0,7.9-18.7,9-21.3h37.3c1.1,2.6,9.6,21.3,9.6,21.3h18.1L-20.9,233.6z"/>
				</g>
			</g>
		</g>
	</g>
</g>
</svg>
