<?xml version="1.0" encoding="UTF-8" standalone="no"?>
<!-- Generator: Adobe Illustrator 19.0.0, SVG Export Plug-In . SVG Version: 6.00 Build 0)  -->

<svg
   version="1.1"
   id="layer"
   x="0px"
   y="0px"
   viewBox="-135 143 600 257.20001"
   xml:space="preserve"
   sodipodi:docname="avl.svg"
   width="600"
   height="257.20001"
   inkscape:version="1.3.2 (091e20e, 2023-11-25, custom)"
   xmlns:inkscape="http://www.inkscape.org/namespaces/inkscape"
   xmlns:sodipodi="http://sodipodi.sourceforge.net/DTD/sodipodi-0.dtd"
   xmlns="http://www.w3.org/2000/svg"
   xmlns:svg="http://www.w3.org/2000/svg"><defs
   id="defs1" /><sodipodi:namedview
   id="namedview1"
   pagecolor="#ffffff"
   bordercolor="#000000"
   borderopacity="0.25"
   inkscape:showpageshadow="2"
   inkscape:pageopacity="0.0"
   inkscape:pagecheckerboard="0"
   inkscape:deskcolor="#d1d1d1"
   inkscape:zoom="1.2070552"
   inkscape:cx="365.7662"
   inkscape:cy="253.0953"
   inkscape:window-width="1920"
   inkscape:window-height="1001"
   inkscape:window-x="-9"
   inkscape:window-y="-9"
   inkscape:window-maximized="1"
   inkscape:current-layer="layer" />
<style
   type="text/css"
   id="style1">
	.st0{fill:#005A99;}
	.st1{fill:#FFFFFF;}
	.st2{fill:#AFDFF9;}
</style>
<g
   id="Page-1"
   transform="translate(-4,-3.8)">
	<g
   id="Press-grid-page---webinars"
   transform="translate(-113,-13)">
		<g
   id="header">
			<g
   id="logo"
   transform="translate(113,13)">
				<polygon
   id="Fill-1"
   class="st0"
   points="-131,404 469,404 469,146.8 -131,146.8 " />
				<g
   id="Group-36"
   transform="translate(11.678314,8.434338)">
					<path
   id="Fill-2"
   class="st1"
   d="m 263.7,319.1 c -3.8,3 -14.2,-6.9 -15.2,-8.2 v 0 c -0.9,-1.3 -7.2,-14.3 -3.1,-17 5.7,-3.8 19.8,4 20.2,4.5 0.4,0.7 3.5,16.5 -1.9,20.7 m 11.4,-27.5 v 0 0 0 0 c -14.7,-10 -24.8,-12.1 -32,-5.3 -6.8,6.4 -2.8,18.3 2.8,26.5 6.1,7.9 16.2,15.4 24.3,10.9 8.8,-4.8 9.9,-15 4.9,-32.1" />
					<path
   id="Fill-4"
   class="st2"
   d="m 288.2,282.1 v 0 c -13,-6.1 -21.3,-5.7 -26.4,-4.8 -0.4,0.1 -0.8,0.3 -0.6,0.4 0.1,0.1 0.2,0.2 0.7,0.3 6.9,2.6 13.3,5.9 18.1,10 v 0 c 2.4,5.8 3.6,13 3.9,20.3 0,0.5 0,0.6 0.1,0.7 0.1,0.2 0.4,-0.1 0.6,-0.5 2.5,-4.4 5.4,-12.2 3.6,-26.4 0,0 0,0 0,0" />
					<path
   id="Fill-6"
   class="st1"
   d="m 298.8,274.4 v 0 c -5.2,-3.3 -14.3,-3.7 -20.3,-1.9 -0.5,0.1 -0.8,0.3 -0.7,0.4 0.1,0.1 0.2,0.2 0.6,0.3 7.7,1.8 11.3,3.5 14.7,5.4 0.7,3.8 1.2,7.8 0.6,15.7 0,0.3 0,0.5 0.1,0.6 0.1,0.1 0.3,0 0.6,-0.5 3.5,-5.2 5.9,-14 4.4,-20 z" />
					<path
   id="Fill-8"
   class="st1"
   d="m 344.6,326.2 c 1.7,4.6 -11,11.4 -12.5,11.9 -1.5,0.5 -15.8,2.4 -17.1,-2.3 -1.8,-6.5 9.9,-17.6 10.6,-17.8 0.7,-0.2 16.7,1.8 19,8.2 M 322,306.9 v 0 0 0 0 c -14,10.9 -19.2,19.8 -14.9,28.8 4,8.4 16.5,8.4 26.1,5.5 v 0 c 9.4,-3.3 19.6,-10.6 17.9,-19.8 -2,-9.8 -11.4,-14 -29.1,-14.5" />
					<path
   id="Fill-10"
   class="st2"
   d="m 317,291.4 v 0 c -9.8,10.5 -12,18.4 -12.7,23.6 0,0.4 0,0.8 0.2,0.7 0.1,0 0.2,-0.1 0.5,-0.5 4.6,-5.7 9.8,-10.9 15.1,-14.1 v 0 c 0,0 0,0 0,0 6.3,-0.5 13.5,0.6 20.6,2.5 0.5,0.1 0.6,0.2 0.7,0.1 0.2,0 0,-0.4 -0.3,-0.7 -3.6,-3.7 -10.1,-8.9 -24.1,-11.6 z" />
					<path
   id="Fill-12"
   class="st1"
   d="m 312.9,279 v 0 c -4.7,4 -8,12.5 -8.1,18.7 0,0.5 0.1,0.8 0.2,0.8 0.1,0 0.2,-0.2 0.4,-0.5 4.1,-6.8 6.8,-9.7 9.7,-12.3 3.8,0.5 7.8,1.3 15.1,4.3 0.3,0.1 0.5,0.2 0.6,0.1 0.1,0 0.1,-0.3 -0.3,-0.7 -3.8,-4.9 -11.4,-9.9 -17.6,-10.4 0,0 0,0 0,0" />
					<path
   id="Fill-14"
   class="st1"
   d="m 376.3,251.4 c 4.9,-0.2 7.5,13.9 7.5,15.5 v 0 c 0,1.6 -2.6,15.7 -7.5,15.5 -6.8,-0.3 -13.6,-14.9 -13.7,-15.5 0.1,-0.6 6.9,-15.2 13.7,-15.5 M 351,267 v 0 0 0 0 c 6,16.7 12.9,24.4 22.7,23.1 9.2,-1.2 13.1,-13.1 13.3,-23.1 v 0 c -0.2,-10 -4,-21.9 -13.3,-23.1 -9.9,-1.3 -16.8,6.4 -22.7,23.1" />
					<path
   id="Fill-16"
   class="st2"
   d="m 334.7,267 v 0 c 6.9,12.5 13.8,17.1 18.5,19.4 0.4,0.2 0.8,0.2 0.8,0 0,-0.1 -0.1,-0.2 -0.4,-0.7 -4.1,-6.1 -7.3,-12.6 -8.8,-18.8 v 0 0 c 1.5,-6.1 4.7,-12.6 8.8,-18.8 0.3,-0.4 0.4,-0.5 0.3,-0.7 0,-0.2 -0.4,-0.1 -0.8,0 -4.5,2.5 -11.5,7 -18.4,19.6 0,0 0,0 0,0" />
					<path
   id="Fill-18"
   class="st1"
   d="m 321.7,267 v 0 c 2.3,5.7 9.4,11.4 15.3,13.5 0.5,0.2 0.8,0.2 0.8,0.1 0,-0.1 -0.1,-0.3 -0.3,-0.6 -5.2,-6 -7.1,-9.5 -8.7,-13 1.6,-3.5 3.6,-7 8.8,-13 0.2,-0.3 0.3,-0.4 0.3,-0.5 0,-0.1 -0.3,-0.1 -0.8,0 -6,2.1 -13.1,7.8 -15.4,13.5 z" />
					<path
   id="Fill-20"
   class="st1"
   d="m 315,198.2 c 1.3,-4.7 15.6,-2.8 17.1,-2.3 v 0 c 1.5,0.5 14.2,7.3 12.5,11.9 -2.4,6.4 -18.3,8.4 -19,8.2 -0.7,-0.2 -12.4,-11.3 -10.6,-17.8 m 7,28.9 v 0 0 c 17.7,-0.5 27.1,-4.7 29,-14.5 1.7,-9.2 -8.4,-16.5 -17.9,-19.8 v 0 c -9.6,-2.9 -22.1,-2.9 -26.1,5.5 -4.2,9 0.9,18 15,28.8" />
					<path
   id="Fill-22"
   class="st2"
   d="m 317,242.6 v 0 c 14.1,-2.7 20.6,-7.9 24.2,-11.6 0.3,-0.3 0.5,-0.7 0.3,-0.7 -0.1,-0.1 -0.2,0 -0.7,0.1 -7.1,2 -14.3,3 -20.6,2.5 v 0 0 c -5.4,-3.3 -10.6,-8.4 -15.1,-14.1 -0.3,-0.4 -0.4,-0.5 -0.5,-0.5 -0.2,-0.1 -0.3,0.3 -0.2,0.7 0.6,5.1 2.8,13.1 12.6,23.6 0,-0.1 0,0 0,0" />
					<path
   id="Fill-24"
   class="st1"
   d="m 313,254.9 v 0 c 6.2,-0.4 13.8,-5.4 17.6,-10.4 0.3,-0.4 0.4,-0.7 0.3,-0.7 -0.1,0 -0.3,0 -0.6,0.1 -7.3,3 -11.2,3.8 -15.1,4.3 -2.8,-2.6 -5.6,-5.6 -9.7,-12.3 -0.2,-0.3 -0.3,-0.4 -0.4,-0.5 -0.1,-0.1 -0.2,0.2 -0.2,0.8 0.1,6.2 3.3,14.8 8.1,18.7 -0.1,0 -0.1,0 0,0" />
					<path
   id="Fill-26"
   class="st1"
   d="m 245.5,240 c -4.1,-2.7 2.2,-15.7 3.1,-17 v 0 c 0.9,-1.3 11.4,-11.2 15.2,-8.2 5.3,4.2 2.3,20 1.9,20.6 -0.5,0.6 -14.6,8.4 -20.2,4.6 m 29.6,2.4 v 0 0 c 5,-17 3.9,-27.3 -4.8,-32.1 -8.2,-4.5 -18.3,2.9 -24.3,10.9 -5.7,8.2 -9.6,20.1 -2.8,26.5 7.2,6.8 17.3,4.6 31.9,-5.3" />
					<path
   id="Fill-28"
   class="st2"
   d="m 288.2,251.9 v 0 c 1.8,-14.2 -1.1,-22 -3.6,-26.6 -0.2,-0.4 -0.5,-0.6 -0.6,-0.5 -0.1,0.1 -0.1,0.2 -0.1,0.7 -0.3,7.3 -1.5,14.5 -3.9,20.3 v 0 0 c -4.8,4.1 -11.3,7.5 -18.1,10 -0.5,0.2 -0.6,0.2 -0.7,0.3 -0.1,0.1 0.2,0.3 0.6,0.4 5.2,1.1 13.5,1.5 26.4,-4.6 0,0 0,0 0,0" />
					<path
   id="Fill-30"
   class="st1"
   d="m 298.8,259.5 v 0 c 1.5,-6 -0.9,-14.8 -4.4,-19.9 -0.3,-0.5 -0.5,-0.6 -0.6,-0.5 -0.1,0.1 -0.1,0.3 -0.1,0.6 0.6,7.9 0.2,11.9 -0.6,15.7 -3.4,1.9 -7,3.6 -14.7,5.4 -0.3,0.1 -0.5,0.1 -0.6,0.3 -0.1,0.1 0.1,0.3 0.7,0.4 5.9,1.7 15,1.3 20.3,-2 z" />
					<path
   id="Fill-32"
   class="st1"
   d="m 130.9,309.2 v -75.5 h -17.4 v 91.8 h 65.8 v -16.3 z m -78,-18.8 c -3.8,-9 -24.3,-56.8 -24.3,-56.8 H 10.7 L 50,325.4 h 6.2 L 94.9,233.6 H 77 c 0,0 -20.3,47.8 -24.1,56.8 z" />
					<path
   id="Fill-34"
   class="st1"
   d="m -14.9,288.1 h -23.3 c 2,-4.7 8.4,-20 11.3,-26.7 3,6.7 9.9,21.9 12,26.7 z m -6,-54.5 H -33 l -39.1,91.8 h 18.2 c 0,0 7.9,-18.7 9,-21.3 h 37.3 c 1.1,2.6 9.6,21.3 9.6,21.3 h 18.1 z" />
				</g>
			</g>
		</g>
	</g>
</g>
</svg>
