<?xml version="1.0" encoding="UTF-8"?>
<!DOCTYPE svg PUBLIC "-//W3C//DTD SVG 1.1//EN" "http://www.w3.org/Graphics/SVG/1.1/DTD/svg11.dtd">
<svg xmlns="http://www.w3.org/2000/svg" version="1.1" width="2509px" height="881px" style="shape-rendering:geometricPrecision; text-rendering:geometricPrecision; image-rendering:optimizeQuality; fill-rule:evenodd; clip-rule:evenodd" xmlns:xlink="http://www.w3.org/1999/xlink">
<g><path style="opacity:1" fill="#fefefe" d="M -0.5,-0.5 C 835.833,-0.5 1672.17,-0.5 2508.5,-0.5C 2508.5,293.167 2508.5,586.833 2508.5,880.5C 1672.17,880.5 835.833,880.5 -0.5,880.5C -0.5,586.833 -0.5,293.167 -0.5,-0.5 Z"/></g>
<g><path style="opacity:1" fill="#1a26fd" d="M 383.5,152.5 C 383.5,152.833 383.5,153.167 383.5,153.5C 343.19,129.515 300.523,110.682 255.5,97C 230.601,89.7516 205.267,87.4183 179.5,90C 145.955,96.1779 126.121,116.011 120,149.5C 116.863,173.268 118.863,196.601 126,219.5C 139.546,262.255 158.212,302.588 182,340.5C 219.601,398.645 262.268,452.978 310,503.5C 379.538,576.758 456.371,640.591 540.5,695C 582.983,721.406 627.983,742.739 675.5,759C 701.495,767.761 728.162,771.095 755.5,769C 774.183,766.424 790.517,759.591 804.5,748.5C 797.238,763.314 785.904,773.814 770.5,780C 745.402,788.799 719.735,790.799 693.5,786C 659.18,779.004 626.18,768.004 594.5,753C 534.825,724.186 478.825,689.853 426.5,650C 322.097,570.266 231.264,477.432 154,371.5C 119.27,323.39 91.2703,271.39 70,215.5C 58.4709,185.13 54.1375,153.797 57,121.5C 64.6283,80.2102 89.4616,58.3768 131.5,56C 156.672,54.917 181.338,57.917 205.5,65C 269.374,85.4388 328.708,114.605 383.5,152.5 Z"/></g>
<g><path style="opacity:1" fill="#7375fe" d="M 383.5,152.5 C 387.951,155.111 392.284,157.944 396.5,161C 391.634,159.562 387.3,157.062 383.5,153.5C 383.5,153.167 383.5,152.833 383.5,152.5 Z"/></g>
<g><path style="opacity:1" fill="#020202" d="M 1219.5,212.5 C 1284.69,211.517 1322.86,243.184 1334,307.5C 1338.14,338.472 1335.47,368.806 1326,398.5C 1310.79,436.203 1282.96,457.703 1242.5,463C 1202.85,468.351 1170.35,455.851 1145,425.5C 1131.15,404.296 1123.49,380.963 1122,355.5C 1119.53,328.509 1122.53,302.176 1131,276.5C 1147.5,237.163 1177,215.83 1219.5,212.5 Z"/></g>
<g><path style="opacity:1" fill="#020202" d="M 2222.5,212.5 C 2284.61,210.279 2322.78,239.279 2337,299.5C 2343.62,335.344 2340.62,370.344 2328,404.5C 2311.31,440.437 2283.15,459.937 2243.5,463C 2179.25,466.406 2141.08,436.572 2129,373.5C 2122.17,338.274 2125.17,303.94 2138,270.5C 2155.13,235.215 2183.3,215.881 2222.5,212.5 Z"/></g>
<g><path style="opacity:1" fill="#3a3a3a" d="M 656.5,217.5 C 635.833,217.5 615.167,217.5 594.5,217.5C 594.5,221.833 594.5,226.167 594.5,230.5C 593.514,226.03 593.181,221.363 593.5,216.5C 614.673,216.169 635.673,216.503 656.5,217.5 Z"/></g>
<g><path style="opacity:1" fill="#343434" d="M 1091.5,230.5 C 1091.5,226.167 1091.5,221.833 1091.5,217.5C 1063.5,217.5 1035.5,217.5 1007.5,217.5C 1007.5,221.833 1007.5,226.167 1007.5,230.5C 1010.71,230.19 1013.71,230.523 1016.5,231.5C 1013.17,231.5 1009.83,231.5 1006.5,231.5C 1006.5,226.5 1006.5,221.5 1006.5,216.5C 1035.17,216.5 1063.83,216.5 1092.5,216.5C 1092.82,221.363 1092.49,226.03 1091.5,230.5 Z"/></g>
<g><path style="opacity:1" fill="#343434" d="M 1442.5,217.5 C 1411.5,217.5 1380.5,217.5 1349.5,217.5C 1349.5,221.833 1349.5,226.167 1349.5,230.5C 1348.51,226.03 1348.18,221.363 1348.5,216.5C 1380,216.168 1411.34,216.502 1442.5,217.5 Z"/></g>
<g><path style="opacity:1" fill="#434343" d="M 1567.5,231.5 C 1570.96,230.518 1574.63,230.185 1578.5,230.5C 1578.5,226.167 1578.5,221.833 1578.5,217.5C 1551.17,217.5 1523.83,217.5 1496.5,217.5C 1496.5,221.833 1496.5,226.167 1496.5,230.5C 1500.7,230.183 1504.7,230.517 1508.5,231.5C 1504.17,231.5 1499.83,231.5 1495.5,231.5C 1495.5,226.5 1495.5,221.5 1495.5,216.5C 1523.5,216.5 1551.5,216.5 1579.5,216.5C 1579.5,221.5 1579.5,226.5 1579.5,231.5C 1575.5,231.5 1571.5,231.5 1567.5,231.5 Z"/></g>
<g><path style="opacity:1" fill="#323232" d="M 1972.5,217.5 C 1908.43,217.171 1844.43,217.504 1780.5,218.5C 1812.16,217.167 1844.16,216.5 1876.5,216.5C 1908.67,216.5 1940.67,216.833 1972.5,217.5 Z"/></g>
<g><path style="opacity:1" fill="#040404" d="M 555.5,445.5 C 559.298,446.483 563.298,446.817 567.5,446.5C 567.5,450.833 567.5,455.167 567.5,459.5C 534.671,460.498 501.671,460.832 468.5,460.5C 468.5,455.833 468.5,451.167 468.5,446.5C 476.84,446.626 484.84,445.126 492.5,442C 495.433,439.736 497.6,436.902 499,433.5C 500.152,401.546 500.652,369.546 500.5,337.5C 500.333,306.833 500.167,276.167 500,245.5C 497.894,239.728 494.061,235.562 488.5,233C 481.908,231.671 475.241,231.171 468.5,231.5C 468.5,226.5 468.5,221.5 468.5,216.5C 501.5,216.5 534.5,216.5 567.5,216.5C 567.5,221.5 567.5,226.5 567.5,231.5C 560.743,231.123 554.076,231.623 547.5,233C 541.508,235.659 537.675,240.159 536,246.5C 535.333,307.5 535.333,368.5 536,429.5C 538.444,439.777 544.944,445.11 555.5,445.5 Z"/></g>
<g><path style="opacity:1" fill="#030303" d="M 594.5,459.5 C 594.5,455.167 594.5,450.833 594.5,446.5C 597.385,446.806 600.052,446.473 602.5,445.5C 615.672,446.343 623.505,440.343 626,427.5C 626.667,367.5 626.667,307.5 626,247.5C 624.14,238.973 618.973,233.806 610.5,232C 604.984,231.827 599.651,231.327 594.5,230.5C 594.5,226.167 594.5,221.833 594.5,217.5C 615.167,217.5 635.833,217.5 656.5,217.5C 696.574,279.309 736.907,340.976 777.5,402.5C 778.667,350.503 778.833,298.503 778,246.5C 775.732,238.565 770.565,233.732 762.5,232C 757.177,231.501 751.844,231.334 746.5,231.5C 746.5,226.5 746.5,221.5 746.5,216.5C 774.833,216.5 803.167,216.5 831.5,216.5C 831.5,221.5 831.5,226.5 831.5,231.5C 824.743,231.123 818.076,231.623 811.5,233C 805.508,235.659 801.675,240.159 800,246.5C 799.832,317.737 799.332,388.904 798.5,460C 790.833,460.667 783.167,460.667 775.5,460C 732.627,395.089 690.127,329.923 648,264.5C 647.333,319.5 647.333,374.5 648,429.5C 649.722,437.556 654.556,442.723 662.5,445C 668.157,445.499 673.824,445.666 679.5,445.5C 679.5,450.5 679.5,455.5 679.5,460.5C 650.995,460.831 622.662,460.498 594.5,459.5 Z"/></g>
<g><path style="opacity:1" fill="#030303" d="M 1036.5,401.5 C 1037.12,402.627 1037.96,403.627 1039,404.5C 1039.83,351.998 1039.67,299.665 1038.5,247.5C 1035.6,236.358 1028.26,231.025 1016.5,231.5C 1013.71,230.523 1010.71,230.19 1007.5,230.5C 1007.5,226.167 1007.5,221.833 1007.5,217.5C 1035.5,217.5 1063.5,217.5 1091.5,217.5C 1091.5,221.833 1091.5,226.167 1091.5,230.5C 1086.35,231.327 1081.02,231.827 1075.5,232C 1066.76,234.639 1061.59,240.472 1060,249.5C 1059.5,319.833 1059.33,390.166 1059.5,460.5C 1051.25,460.816 1043.08,460.482 1035,459.5C 993.671,395.348 952.171,331.348 910.5,267.5C 909.496,266.317 908.662,264.984 908,263.5C 907.168,318.335 907.335,373.002 908.5,427.5C 909.828,439.325 916.494,445.491 928.5,446C 932.486,446.499 936.486,446.666 940.5,446.5C 940.8,451.099 940.467,455.599 939.5,460C 911.169,460.5 882.835,460.667 854.5,460.5C 854.5,455.833 854.5,451.167 854.5,446.5C 862.863,446.704 870.863,445.204 878.5,442C 882.381,439.072 884.881,435.239 886,430.5C 886.667,368.833 886.667,307.167 886,245.5C 883.921,239.753 880.088,235.586 874.5,233C 867.924,231.623 861.257,231.123 854.5,231.5C 854.5,226.5 854.5,221.5 854.5,216.5C 875.511,216.167 896.511,216.5 917.5,217.5C 957.193,278.851 996.86,340.184 1036.5,401.5 Z"/></g>
<g><path style="opacity:1" fill="#020202" d="M 1442.5,217.5 C 1442.5,222.167 1442.5,226.833 1442.5,231.5C 1436.82,231.334 1431.16,231.501 1425.5,232C 1415.55,235.402 1412.05,242.235 1415,252.5C 1429.13,295.219 1443.46,337.885 1458,380.5C 1462.31,394.726 1466.14,409.06 1469.5,423.5C 1470.81,422.088 1471.64,420.421 1472,418.5C 1474.11,410.209 1476.11,401.875 1478,393.5C 1494.2,346.552 1510.2,299.552 1526,252.5C 1527.65,239.312 1521.82,232.312 1508.5,231.5C 1504.7,230.517 1500.7,230.183 1496.5,230.5C 1496.5,226.167 1496.5,221.833 1496.5,217.5C 1523.83,217.5 1551.17,217.5 1578.5,217.5C 1578.5,221.833 1578.5,226.167 1578.5,230.5C 1574.63,230.185 1570.96,230.518 1567.5,231.5C 1562.27,231.867 1558.1,234.2 1555,238.5C 1553,242.5 1551,246.5 1549,250.5C 1524.91,320.508 1500.41,390.341 1475.5,460C 1467.25,460.815 1459.09,460.648 1451,459.5C 1425.86,387.091 1400.53,314.758 1375,242.5C 1373.05,238.097 1369.89,234.93 1365.5,233C 1360.04,232.055 1354.71,231.222 1349.5,230.5C 1349.5,226.167 1349.5,221.833 1349.5,217.5C 1380.5,217.5 1411.5,217.5 1442.5,217.5 Z"/></g>
<g><path style="opacity:1" fill="#030303" d="M 1699.5,459.5 C 1699.5,455.167 1699.5,450.833 1699.5,446.5C 1703.37,446.815 1707.04,446.482 1710.5,445.5C 1721.8,445.535 1727.47,439.868 1727.5,428.5C 1722.73,411.69 1717.06,395.19 1710.5,379C 1680.83,378.333 1651.17,378.333 1621.5,379C 1615.75,392.584 1610.58,406.418 1606,420.5C 1601.8,435.013 1606.96,443.513 1621.5,446C 1626.15,446.499 1630.82,446.666 1635.5,446.5C 1635.5,451.167 1635.5,455.833 1635.5,460.5C 1607.83,460.5 1580.17,460.5 1552.5,460.5C 1552.5,455.833 1552.5,451.167 1552.5,446.5C 1558.35,446.849 1564.01,446.016 1569.5,444C 1572.67,442.167 1575.17,439.667 1577,436.5C 1604.92,364.4 1632.26,292.067 1659,219.5C 1659.37,218.584 1659.87,217.75 1660.5,217C 1669.17,216.333 1677.83,216.333 1686.5,217C 1687.13,217.75 1687.63,218.584 1688,219.5C 1714.61,292.654 1741.61,365.654 1769,438.5C 1775.46,444.913 1783.29,447.58 1792.5,446.5C 1792.5,451.167 1792.5,455.833 1792.5,460.5C 1761.33,460.831 1730.33,460.498 1699.5,459.5 Z"/></g>
<g><path style="opacity:1" fill="#010101" d="M 1972.5,217.5 C 1973.22,237.165 1973.89,256.831 1974.5,276.5C 1968.57,276.808 1962.74,276.475 1957,275.5C 1956.23,266.318 1954.56,257.318 1952,248.5C 1948.06,240.23 1941.56,235.396 1932.5,234C 1919.5,233.5 1906.5,233.333 1893.5,233.5C 1893.33,298.168 1893.5,362.834 1894,427.5C 1895.59,438.753 1902.09,444.92 1913.5,446C 1918.82,446.499 1924.16,446.666 1929.5,446.5C 1929.8,451.099 1929.47,455.599 1928.5,460C 1893.5,460.5 1858.5,460.667 1823.5,460.5C 1823.5,455.833 1823.5,451.167 1823.5,446.5C 1833.2,447.091 1842.53,445.591 1851.5,442C 1855.42,438.323 1857.92,433.823 1859,428.5C 1859.67,363.833 1859.67,299.167 1859,234.5C 1845.91,233.345 1832.74,233.178 1819.5,234C 1809.44,236.391 1802.94,242.557 1800,252.5C 1798.34,260.432 1797.18,268.432 1796.5,276.5C 1790.83,276.5 1785.17,276.5 1779.5,276.5C 1779.57,257.161 1779.91,237.828 1780.5,218.5C 1844.43,217.504 1908.43,217.171 1972.5,217.5 Z"/></g>
<g><path style="opacity:1" fill="#040404" d="M 1994.5,216.5 C 2027.5,216.5 2060.5,216.5 2093.5,216.5C 2093.5,221.5 2093.5,226.5 2093.5,231.5C 2086.74,231.123 2080.08,231.623 2073.5,233C 2067.94,235.562 2064.11,239.728 2062,245.5C 2061.33,307.167 2061.33,368.833 2062,430.5C 2063.67,436.841 2067.51,441.341 2073.5,444C 2080.08,445.377 2086.74,445.877 2093.5,445.5C 2093.5,450.5 2093.5,455.5 2093.5,460.5C 2060.5,460.5 2027.5,460.5 1994.5,460.5C 1994.5,455.833 1994.5,451.167 1994.5,446.5C 2002.84,446.626 2010.84,445.126 2018.5,442C 2022.66,438.846 2025.16,434.679 2026,429.5C 2026.67,368.5 2026.67,307.5 2026,246.5C 2023.73,238.565 2018.56,233.732 2010.5,232C 2005.18,231.501 1999.84,231.334 1994.5,231.5C 1994.5,226.5 1994.5,221.5 1994.5,216.5 Z"/></g>
<g><path style="opacity:1" fill="#fefefe" d="M 1216.5,231.5 C 1248.89,226.778 1272.39,238.778 1287,267.5C 1295.49,290.545 1299.32,314.378 1298.5,339C 1298.97,362.141 1295.47,384.641 1288,406.5C 1274.25,436.633 1250.75,449.466 1217.5,445C 1190.37,439.535 1173.2,423.369 1166,396.5C 1162.81,385.046 1160.81,373.379 1160,361.5C 1159.17,341.811 1159.5,322.144 1161,302.5C 1162.86,278.866 1172.36,259.033 1189.5,243C 1197.87,237.476 1206.87,233.643 1216.5,231.5 Z"/></g>
<g><path style="opacity:1" fill="#fefefe" d="M 2220.5,231.5 C 2260.44,227.201 2285.94,244.201 2297,282.5C 2298.61,289.446 2299.94,296.446 2301,303.5C 2304.02,333.717 2302.69,363.717 2297,393.5C 2284.2,435.83 2256.03,452.33 2212.5,443C 2193.85,437.018 2181.02,424.852 2174,406.5C 2166.26,383.485 2162.76,359.818 2163.5,335.5C 2162.74,312.013 2166.57,289.346 2175,267.5C 2184.46,248.196 2199.63,236.196 2220.5,231.5 Z"/></g>
<g><path style="opacity:1" fill="#fcfcfc" d="M 1665.5,250.5 C 1677.63,285.708 1690.13,321.041 1703,356.5C 1703.49,358.134 1703.66,359.801 1703.5,361.5C 1678.5,361.5 1653.5,361.5 1628.5,361.5C 1637.32,335.196 1646.66,309.029 1656.5,283C 1660.22,272.35 1663.22,261.517 1665.5,250.5 Z"/></g>
<g><path style="opacity:1" fill="#b4b4b4" d="M 1038.5,247.5 C 1039.67,299.665 1039.83,351.998 1039,404.5C 1037.96,403.627 1037.12,402.627 1036.5,401.5C 1038.5,350.511 1039.16,299.178 1038.5,247.5 Z"/></g>
<g><path style="opacity:1" fill="#c6c6c6" d="M 910.5,267.5 C 908.504,320.49 907.838,373.823 908.5,427.5C 907.335,373.002 907.168,318.335 908,263.5C 908.662,264.984 909.496,266.317 910.5,267.5 Z"/></g>
<g><path style="opacity:1" fill="#8a8a8a" d="M 555.5,445.5 C 559.833,445.5 564.167,445.5 568.5,445.5C 568.819,450.363 568.486,455.03 567.5,459.5C 567.5,455.167 567.5,450.833 567.5,446.5C 563.298,446.817 559.298,446.483 555.5,445.5 Z"/></g>
<g><path style="opacity:1" fill="#696969" d="M 602.5,445.5 C 600.052,446.473 597.385,446.806 594.5,446.5C 594.5,450.833 594.5,455.167 594.5,459.5C 593.514,455.03 593.181,450.363 593.5,445.5C 596.5,445.5 599.5,445.5 602.5,445.5 Z"/></g>
<g><path style="opacity:1" fill="#727272" d="M 1710.5,445.5 C 1707.04,446.482 1703.37,446.815 1699.5,446.5C 1699.5,450.833 1699.5,455.167 1699.5,459.5C 1698.51,455.03 1698.18,450.363 1698.5,445.5C 1702.5,445.5 1706.5,445.5 1710.5,445.5 Z"/></g>
<g><path style="opacity:1" fill="#0c0c0c" d="M 988.5,558.5 C 997.745,557.899 1000.41,561.732 996.5,570C 986.434,571.467 983.767,567.634 988.5,558.5 Z"/></g>
<g><path style="opacity:1" fill="#0c0c0c" d="M 1254.5,558.5 C 1260.4,556.9 1263.4,559.067 1263.5,565C 1263.65,567.034 1262.98,568.701 1261.5,570C 1258.57,570.777 1255.74,570.61 1253,569.5C 1250.69,565.374 1251.19,561.707 1254.5,558.5 Z"/></g>
<g><path style="opacity:1" fill="#0a0a0a" d="M 1835.5,558.5 C 1844.71,557.873 1847.38,561.706 1843.5,570C 1833.89,571.306 1831.22,567.473 1835.5,558.5 Z"/></g>
<g><path style="opacity:1" fill="#444444" d="M 841.5,563.5 C 823.833,563.5 806.167,563.5 788.5,563.5C 788.5,564.833 788.5,566.167 788.5,567.5C 787.549,566.081 787.216,564.415 787.5,562.5C 805.674,562.17 823.674,562.503 841.5,563.5 Z"/></g>
<g><path style="opacity:1" fill="#3e3e3e" d="M 1431.5,563.5 C 1441.65,562.506 1451.99,562.172 1462.5,562.5C 1462.5,564.167 1462.5,565.833 1462.5,567.5C 1461.17,567.5 1459.83,567.5 1458.5,567.5C 1459.21,566.596 1460.21,566.263 1461.5,566.5C 1461.5,565.5 1461.5,564.5 1461.5,563.5C 1451.5,563.5 1441.5,563.5 1431.5,563.5 Z"/></g>
<g><path style="opacity:1" fill="#010101" d="M 841.5,563.5 C 841.5,569.5 841.5,575.5 841.5,581.5C 839.833,581.5 838.167,581.5 836.5,581.5C 836.915,576.497 835.248,572.33 831.5,569C 823.92,567.604 816.253,567.104 808.5,567.5C 808.5,577.167 808.5,586.833 808.5,596.5C 817.167,596.5 825.833,596.5 834.5,596.5C 834.5,598.167 834.5,599.833 834.5,601.5C 825.833,601.5 817.167,601.5 808.5,601.5C 808.5,612.167 808.5,622.833 808.5,633.5C 817.25,633.91 825.916,633.41 834.5,632C 838.453,629.253 840.119,625.42 839.5,620.5C 841.167,620.5 842.833,620.5 844.5,620.5C 844.5,626.5 844.5,632.5 844.5,638.5C 825.833,638.5 807.167,638.5 788.5,638.5C 788.5,637.167 788.5,635.833 788.5,634.5C 792.748,634.668 795.915,633.001 798,629.5C 798.667,610.5 798.667,591.5 798,572.5C 796.299,568.125 793.133,566.458 788.5,567.5C 788.5,566.167 788.5,564.833 788.5,563.5C 806.167,563.5 823.833,563.5 841.5,563.5 Z"/></g>
<g><path style="opacity:1" fill="#080808" d="M 1431.5,563.5 C 1441.5,563.5 1451.5,563.5 1461.5,563.5C 1461.5,564.5 1461.5,565.5 1461.5,566.5C 1460.21,566.263 1459.21,566.596 1458.5,567.5C 1456.1,567.393 1454.26,568.393 1453,570.5C 1452.33,590.5 1452.33,610.5 1453,630.5C 1455.55,633.186 1458.71,634.186 1462.5,633.5C 1462.5,635.167 1462.5,636.833 1462.5,638.5C 1452.17,638.5 1441.83,638.5 1431.5,638.5C 1431.5,637.167 1431.5,635.833 1431.5,634.5C 1435.79,634.802 1438.96,633.136 1441,629.5C 1441.67,610.167 1441.67,590.833 1441,571.5C 1438.85,568.037 1435.68,566.704 1431.5,567.5C 1431.5,566.167 1431.5,564.833 1431.5,563.5 Z"/></g>
<g><path style="opacity:1" fill="#0d0d0d" d="M 1800.5,568.5 C 1802.17,568.5 1803.83,568.5 1805.5,568.5C 1805.5,572.833 1805.5,577.167 1805.5,581.5C 1810.17,581.5 1814.83,581.5 1819.5,581.5C 1819.5,583.5 1819.5,585.5 1819.5,587.5C 1814.83,587.5 1810.17,587.5 1805.5,587.5C 1805.33,601.171 1805.5,614.837 1806,628.5C 1806.78,630.286 1807.95,631.786 1809.5,633C 1812.82,633.498 1816.15,633.665 1819.5,633.5C 1819.5,635.167 1819.5,636.833 1819.5,638.5C 1814.19,639.442 1808.86,639.609 1803.5,639C 1799.6,637.431 1797.1,634.598 1796,630.5C 1795.5,616.171 1795.33,601.837 1795.5,587.5C 1792.83,587.5 1790.17,587.5 1787.5,587.5C 1787.5,586.167 1787.5,584.833 1787.5,583.5C 1795.66,581.998 1799.99,576.998 1800.5,568.5 Z"/></g>
<g><path style="opacity:1" fill="#090909" d="M 963.5,578.5 C 971.348,576.963 974.515,579.963 973,587.5C 971.667,588.167 970.333,588.833 969,589.5C 967.022,585.13 964.189,584.464 960.5,587.5C 965.648,595.346 965.815,603.346 961,611.5C 959.457,613.378 957.624,614.878 955.5,616C 949.66,617.895 943.66,618.895 937.5,619C 933.576,622.182 933.576,625.182 937.5,628C 944.5,628.333 951.5,628.667 958.5,629C 964.553,630.053 968.387,633.553 970,639.5C 971.988,652.522 966.488,660.355 953.5,663C 945.768,663.856 938.102,663.523 930.5,662C 919.327,655.925 917.66,647.925 925.5,638C 927.957,636.438 930.624,635.438 933.5,635C 926.606,628.355 926.94,622.022 934.5,616C 930.183,613.685 927.35,610.185 926,605.5C 923.818,588.35 931.318,580.184 948.5,581C 951.393,581.631 954.226,582.464 957,583.5C 959.341,581.984 961.508,580.317 963.5,578.5 Z"/></g>
<g><path style="opacity:1" fill="#080808" d="M 1388.5,578.5 C 1395.33,577.174 1398.49,579.84 1398,586.5C 1396.74,588.607 1394.9,589.607 1392.5,589.5C 1391.54,585.004 1389.21,584.337 1385.5,587.5C 1393.04,608.454 1385.71,618.621 1363.5,618C 1359.99,619.907 1358.82,622.74 1360,626.5C 1360.75,627.126 1361.58,627.626 1362.5,628C 1369.5,628.333 1376.5,628.667 1383.5,629C 1394.46,632.844 1397.96,640.344 1394,651.5C 1390.47,658.017 1384.97,661.85 1377.5,663C 1370.1,663.848 1362.77,663.515 1355.5,662C 1347.04,658.645 1343.87,652.479 1346,643.5C 1348.42,639.248 1351.92,636.248 1356.5,634.5C 1350.79,627.738 1351.46,621.738 1358.5,616.5C 1351.12,610.195 1348.62,602.195 1351,592.5C 1354.16,585.017 1359.82,581.017 1368,580.5C 1372.81,580.861 1377.47,581.861 1382,583.5C 1384.34,581.984 1386.51,580.317 1388.5,578.5 Z"/></g>
<g><path style="opacity:1" fill="#0a0a0a" d="M 884.5,580.5 C 894.734,579.196 901.9,583.196 906,592.5C 906.333,604.833 906.667,617.167 907,629.5C 908.677,633.051 911.51,634.384 915.5,633.5C 915.5,635.167 915.5,636.833 915.5,638.5C 909.167,638.5 902.833,638.5 896.5,638.5C 896.667,623.83 896.5,609.163 896,594.5C 891.872,587.511 886.039,585.678 878.5,589C 875.533,591.1 873.7,593.934 873,597.5C 872.333,608.5 872.333,619.5 873,630.5C 875.153,633.124 877.987,634.124 881.5,633.5C 881.5,635.167 881.5,636.833 881.5,638.5C 871.833,638.5 862.167,638.5 852.5,638.5C 852.5,636.833 852.5,635.167 852.5,633.5C 854.857,633.663 857.19,633.497 859.5,633C 860.701,632.097 861.535,630.931 862,629.5C 862.667,616.5 862.667,603.5 862,590.5C 860.323,586.949 857.49,585.616 853.5,586.5C 853.5,584.833 853.5,583.167 853.5,581.5C 859.167,581.5 864.833,581.5 870.5,581.5C 870.998,584.487 871.498,587.487 872,590.5C 874.918,585.396 879.085,582.063 884.5,580.5 Z"/></g>
<g><path style="opacity:1" fill="#0b0b0b" d="M 1042.5,580.5 C 1054.77,578.871 1062.61,583.871 1066,595.5C 1066.33,607.5 1066.67,619.5 1067,631.5C 1069.14,633.278 1071.64,633.945 1074.5,633.5C 1074.5,635.167 1074.5,636.833 1074.5,638.5C 1068.5,638.5 1062.5,638.5 1056.5,638.5C 1056.67,624.829 1056.5,611.163 1056,597.5C 1055.73,592.562 1053.23,589.396 1048.5,588C 1039.92,585.874 1034.42,589.041 1032,597.5C 1031.33,608.167 1031.33,618.833 1032,629.5C 1033.68,633.051 1036.51,634.384 1040.5,633.5C 1040.5,635.167 1040.5,636.833 1040.5,638.5C 1031.17,638.5 1021.83,638.5 1012.5,638.5C 1012.5,636.833 1012.5,635.167 1012.5,633.5C 1015.97,634.125 1018.8,633.125 1021,630.5C 1021.67,616.833 1021.67,603.167 1021,589.5C 1018.8,586.875 1015.97,585.875 1012.5,586.5C 1012.5,584.833 1012.5,583.167 1012.5,581.5C 1018.5,581.5 1024.5,581.5 1030.5,581.5C 1030.42,584.271 1030.92,586.937 1032,589.5C 1034.47,585.199 1037.97,582.199 1042.5,580.5 Z"/></g>
<g><path style="opacity:1" fill="#080808" d="M 1100.5,580.5 C 1121.18,579.847 1130.51,589.847 1128.5,610.5C 1116.83,610.5 1105.17,610.5 1093.5,610.5C 1094.98,633.072 1105.31,638.405 1124.5,626.5C 1125.88,627 1126.55,628 1126.5,629.5C 1125.57,632.858 1123.57,635.358 1120.5,637C 1107.67,642.318 1096.84,639.818 1088,629.5C 1081.72,615.644 1082.05,601.977 1089,588.5C 1092.15,584.689 1095.98,582.023 1100.5,580.5 Z"/></g>
<g><path style="opacity:1" fill="#080808" d="M 1158.5,580.5 C 1178.61,580.285 1187.61,590.285 1185.5,610.5C 1173.83,610.5 1162.17,610.5 1150.5,610.5C 1148.73,626.562 1155.73,633.729 1171.5,632C 1175.52,630.969 1178.68,628.802 1181,625.5C 1182.24,626.399 1183.07,627.566 1183.5,629C 1181.34,634.487 1177.34,637.82 1171.5,639C 1155.85,641.601 1145.68,635.434 1141,620.5C 1140.33,613.167 1140.33,605.833 1141,598.5C 1143.51,589.056 1149.34,583.056 1158.5,580.5 Z"/></g>
<g><path style="opacity:1" fill="#080808" d="M 1222.5,580.5 C 1228.4,579.488 1233.57,580.821 1238,584.5C 1240.23,592.099 1237.4,595.766 1229.5,595.5C 1228.65,587.028 1224.81,585.361 1218,590.5C 1216.11,593.618 1214.77,596.951 1214,600.5C 1213.33,610.5 1213.33,620.5 1214,630.5C 1216.65,633.87 1220.15,635.204 1224.5,634.5C 1224.5,635.833 1224.5,637.167 1224.5,638.5C 1214.5,638.5 1204.5,638.5 1194.5,638.5C 1194.5,636.833 1194.5,635.167 1194.5,633.5C 1198.49,634.384 1201.32,633.051 1203,629.5C 1203.67,616.5 1203.67,603.5 1203,590.5C 1201.19,587.179 1198.35,585.845 1194.5,586.5C 1194.5,584.833 1194.5,583.167 1194.5,581.5C 1199.84,581.334 1205.18,581.501 1210.5,582C 1211.24,585.487 1212.07,588.987 1213,592.5C 1214.92,587.424 1218.09,583.424 1222.5,580.5 Z"/></g>
<g><path style="opacity:1" fill="#090909" d="M 1309.5,580.5 C 1320.28,579.225 1327.44,583.559 1331,593.5C 1331.33,605.833 1331.67,618.167 1332,630.5C 1333.85,633.041 1336.35,634.041 1339.5,633.5C 1339.5,635.167 1339.5,636.833 1339.5,638.5C 1333.5,638.5 1327.5,638.5 1321.5,638.5C 1321.67,624.163 1321.5,609.829 1321,595.5C 1318.1,588.632 1312.94,586.132 1305.5,588C 1301.92,589.916 1299.42,592.749 1298,596.5C 1297.33,608.167 1297.33,619.833 1298,631.5C 1300.48,633.314 1303.31,633.98 1306.5,633.5C 1306.5,635.167 1306.5,636.833 1306.5,638.5C 1296.83,638.5 1287.17,638.5 1277.5,638.5C 1277.5,636.833 1277.5,635.167 1277.5,633.5C 1279.86,633.663 1282.19,633.497 1284.5,633C 1285.7,632.097 1286.53,630.931 1287,629.5C 1287.67,616.5 1287.67,603.5 1287,590.5C 1285.15,587.159 1282.32,585.826 1278.5,586.5C 1278.5,584.833 1278.5,583.167 1278.5,581.5C 1284.17,581.5 1289.83,581.5 1295.5,581.5C 1295.55,584.568 1296.05,587.568 1297,590.5C 1299.92,585.396 1304.08,582.063 1309.5,580.5 Z"/></g>
<g><path style="opacity:1" fill="#0b0b0b" d="M 1501.5,580.5 C 1512.44,579.543 1519.6,584.21 1523,594.5C 1523.33,606.5 1523.67,618.5 1524,630.5C 1524.37,631.416 1524.87,632.25 1525.5,633C 1527.47,633.495 1529.47,633.662 1531.5,633.5C 1531.5,635.167 1531.5,636.833 1531.5,638.5C 1525.5,638.5 1519.5,638.5 1513.5,638.5C 1513.67,624.496 1513.5,610.496 1513,596.5C 1509.04,587.254 1502.54,585.088 1493.5,590C 1491.35,592.469 1489.85,595.302 1489,598.5C 1488.33,608.833 1488.33,619.167 1489,629.5C 1490.68,633.051 1493.51,634.384 1497.5,633.5C 1497.5,635.167 1497.5,636.833 1497.5,638.5C 1488.17,638.5 1478.83,638.5 1469.5,638.5C 1469.5,636.833 1469.5,635.167 1469.5,633.5C 1473.01,634.124 1475.85,633.124 1478,630.5C 1478.67,616.833 1478.67,603.167 1478,589.5C 1475.8,586.875 1472.97,585.875 1469.5,586.5C 1469.5,584.833 1469.5,583.167 1469.5,581.5C 1475.5,581.5 1481.5,581.5 1487.5,581.5C 1487.02,590.551 1488.68,591.718 1492.5,585C 1495.32,582.921 1498.32,581.421 1501.5,580.5 Z"/></g>
<g><path style="opacity:1" fill="#090909" d="M 1569.5,580.5 C 1580.28,579.225 1587.44,583.559 1591,593.5C 1591.33,605.833 1591.67,618.167 1592,630.5C 1593.85,633.041 1596.35,634.041 1599.5,633.5C 1599.5,635.167 1599.5,636.833 1599.5,638.5C 1593.5,638.5 1587.5,638.5 1581.5,638.5C 1581.67,624.163 1581.5,609.829 1581,595.5C 1578.1,588.632 1572.94,586.132 1565.5,588C 1561.92,589.916 1559.42,592.749 1558,596.5C 1557.33,608.167 1557.33,619.833 1558,631.5C 1560.56,633.179 1563.4,633.846 1566.5,633.5C 1566.5,635.167 1566.5,636.833 1566.5,638.5C 1556.83,638.5 1547.17,638.5 1537.5,638.5C 1537.5,636.833 1537.5,635.167 1537.5,633.5C 1539.86,633.663 1542.19,633.497 1544.5,633C 1545.7,632.097 1546.53,630.931 1547,629.5C 1547.67,616.5 1547.67,603.5 1547,590.5C 1545.19,587.179 1542.35,585.845 1538.5,586.5C 1538.5,584.833 1538.5,583.167 1538.5,581.5C 1544.17,581.5 1549.83,581.5 1555.5,581.5C 1556,584.487 1556.5,587.487 1557,590.5C 1559.92,585.396 1564.08,582.063 1569.5,580.5 Z"/></g>
<g><path style="opacity:1" fill="#0e0e0e" d="M 1626.5,580.5 C 1643.78,578.373 1654.28,585.706 1658,602.5C 1659.79,614.098 1657.29,624.598 1650.5,634C 1640.51,640.272 1630.18,640.939 1619.5,636C 1613.83,631.18 1610.33,625.014 1609,617.5C 1606.62,605.201 1609.45,594.368 1617.5,585C 1620.59,583.454 1623.59,581.954 1626.5,580.5 Z"/></g>
<g><path style="opacity:1" fill="#0b0b0b" d="M 1746.5,580.5 C 1755.12,579.242 1762.95,580.909 1770,585.5C 1771,587.5 1772,589.5 1773,591.5C 1773.33,604.167 1773.67,616.833 1774,629.5C 1774.73,632.955 1776.89,634.621 1780.5,634.5C 1780.5,635.833 1780.5,637.167 1780.5,638.5C 1775.79,638.827 1771.12,638.493 1766.5,637.5C 1765.93,634.823 1765.26,632.157 1764.5,629.5C 1761.98,631.19 1759.98,633.357 1758.5,636C 1746.07,642.979 1736.9,640.146 1731,627.5C 1729.4,614.423 1735.23,607.256 1748.5,606C 1753.49,605.501 1758.49,605.334 1763.5,605.5C 1763.67,600.821 1763.5,596.155 1763,591.5C 1759.61,585.533 1754.77,584.033 1748.5,587C 1745.13,589.697 1743.8,593.197 1744.5,597.5C 1737.22,597.93 1734.38,594.596 1736,587.5C 1738.71,583.791 1742.21,581.457 1746.5,580.5 Z"/></g>
<g><path style="opacity:1" fill="#090909" d="M 1881.5,580.5 C 1901.73,579.225 1911.73,588.725 1911.5,609C 1911.47,634.521 1899.13,643.854 1874.5,637C 1868.57,632.98 1864.74,627.48 1863,620.5C 1861.86,611.327 1862.53,602.327 1865,593.5C 1868.38,586.266 1873.88,581.932 1881.5,580.5 Z"/></g>
<g><path style="opacity:1" fill="#060606" d="M 1952.5,580.5 C 1964.32,579.19 1971.49,584.19 1974,595.5C 1974.33,607.167 1974.67,618.833 1975,630.5C 1976.81,633.039 1979.31,634.039 1982.5,633.5C 1982.5,635.167 1982.5,636.833 1982.5,638.5C 1976.5,638.5 1970.5,638.5 1964.5,638.5C 1964.67,624.163 1964.5,609.829 1964,595.5C 1960.36,587.838 1954.53,585.671 1946.5,589C 1942.38,591.739 1940.21,595.573 1940,600.5C 1939.33,610.167 1939.33,619.833 1940,629.5C 1941.68,633.051 1944.51,634.384 1948.5,633.5C 1948.5,635.167 1948.5,636.833 1948.5,638.5C 1939.17,638.5 1929.83,638.5 1920.5,638.5C 1920.5,636.833 1920.5,635.167 1920.5,633.5C 1922.86,633.663 1925.19,633.497 1927.5,633C 1928.7,632.097 1929.53,630.931 1930,629.5C 1930.67,616.5 1930.67,603.5 1930,590.5C 1927.81,587.037 1924.64,585.704 1920.5,586.5C 1920.5,584.833 1920.5,583.167 1920.5,581.5C 1926.5,581.5 1932.5,581.5 1938.5,581.5C 1938.55,584.568 1939.05,587.568 1940,590.5C 1942.92,585.396 1947.08,582.063 1952.5,580.5 Z"/></g>
<g><path style="opacity:1" fill="#464646" d="M 1664.5,582.5 C 1673.32,581.507 1682.32,581.173 1691.5,581.5C 1691.5,583.167 1691.5,584.833 1691.5,586.5C 1690.17,586.5 1688.83,586.5 1687.5,586.5C 1688.21,585.596 1689.21,585.263 1690.5,585.5C 1690.5,584.5 1690.5,583.5 1690.5,582.5C 1681.83,582.5 1673.17,582.5 1664.5,582.5 Z"/></g>
<g><path style="opacity:1" fill="#0a0a0a" d="M 2005.5,580.5 C 2012.7,579.627 2019.2,581.293 2025,585.5C 2028.29,591.866 2026.46,595.533 2019.5,596.5C 2019.01,587.515 2014.34,584.015 2005.5,586C 1998.46,590.186 1997.79,595.186 2003.5,601C 2011.69,604.011 2019.19,608.178 2026,613.5C 2031.81,630.897 2025.31,639.563 2006.5,639.5C 1997.96,640.247 1992.63,636.581 1990.5,628.5C 1990.56,623.777 1992.89,621.444 1997.5,621.5C 1998.39,633.121 2004.39,636.954 2015.5,633C 2022.05,627.682 2022.05,622.349 2015.5,617C 2007.46,614.235 2000.3,610.069 1994,604.5C 1989.21,595.493 1991.04,588.326 1999.5,583C 2001.72,582.434 2003.72,581.6 2005.5,580.5 Z"/></g>
<g><path style="opacity:1" fill="#0c0c0c" d="M 978.5,581.5 C 984.833,581.5 991.167,581.5 997.5,581.5C 997.333,597.503 997.5,613.503 998,629.5C 998.465,630.931 999.299,632.097 1000.5,633C 1002.81,633.497 1005.14,633.663 1007.5,633.5C 1007.5,635.167 1007.5,636.833 1007.5,638.5C 997.5,638.5 987.5,638.5 977.5,638.5C 977.5,636.833 977.5,635.167 977.5,633.5C 979.857,633.663 982.19,633.497 984.5,633C 985.667,632.5 986.5,631.667 987,630.5C 987.667,616.833 987.667,603.167 987,589.5C 984.804,586.875 981.97,585.875 978.5,586.5C 978.5,584.833 978.5,583.167 978.5,581.5 Z"/></g>
<g><path style="opacity:1" fill="#030303" d="M 1244.5,582.5 C 1250.5,582.5 1256.5,582.5 1262.5,582.5C 1262.17,598.009 1262.5,613.342 1263.5,628.5C 1263.63,630.09 1264.29,631.423 1265.5,632.5C 1268.08,633.393 1270.75,633.726 1273.5,633.5C 1273.5,635.167 1273.5,636.833 1273.5,638.5C 1263.5,638.5 1253.5,638.5 1243.5,638.5C 1243.5,637.167 1243.5,635.833 1243.5,634.5C 1247.79,634.802 1250.96,633.136 1253,629.5C 1253.67,616.5 1253.67,603.5 1253,590.5C 1251.19,587.179 1248.35,585.845 1244.5,586.5C 1244.5,585.167 1244.5,583.833 1244.5,582.5 Z"/></g>
<g><path style="opacity:1" fill="#585858" d="M 1244.5,582.5 C 1250.64,581.51 1256.98,581.177 1263.5,581.5C 1263.5,597.167 1263.5,612.833 1263.5,628.5C 1262.5,613.342 1262.17,598.009 1262.5,582.5C 1256.5,582.5 1250.5,582.5 1244.5,582.5 Z"/></g>
<g><path style="opacity:1" fill="#0a0a0a" d="M 1664.5,582.5 C 1673.17,582.5 1681.83,582.5 1690.5,582.5C 1690.5,583.5 1690.5,584.5 1690.5,585.5C 1689.21,585.263 1688.21,585.596 1687.5,586.5C 1683.75,587.828 1682.58,590.494 1684,594.5C 1688.8,606.227 1692.8,618.227 1696,630.5C 1701.39,617.714 1706.23,604.714 1710.5,591.5C 1709.4,587.409 1706.73,585.742 1702.5,586.5C 1702.5,584.833 1702.5,583.167 1702.5,581.5C 1710.17,581.5 1717.83,581.5 1725.5,581.5C 1725.5,583.167 1725.5,584.833 1725.5,586.5C 1722.84,586.162 1720.51,586.829 1718.5,588.5C 1711.59,604.978 1705.26,621.645 1699.5,638.5C 1696.1,638.82 1692.77,638.487 1689.5,637.5C 1683.9,622.538 1678.4,607.538 1673,592.5C 1671.93,587.916 1669.09,585.916 1664.5,586.5C 1664.5,585.167 1664.5,583.833 1664.5,582.5 Z"/></g>
<g><path style="opacity:1" fill="#0e0e0e" d="M 1825.5,581.5 C 1831.83,581.5 1838.17,581.5 1844.5,581.5C 1844.33,597.503 1844.5,613.503 1845,629.5C 1845.47,630.931 1846.3,632.097 1847.5,633C 1849.81,633.497 1852.14,633.663 1854.5,633.5C 1854.5,635.167 1854.5,636.833 1854.5,638.5C 1844.5,638.5 1834.5,638.5 1824.5,638.5C 1824.5,636.833 1824.5,635.167 1824.5,633.5C 1827.93,633.893 1831.1,633.227 1834,631.5C 1834.67,617.5 1834.67,603.5 1834,589.5C 1831.8,586.875 1828.97,585.875 1825.5,586.5C 1825.5,584.833 1825.5,583.167 1825.5,581.5 Z"/></g>
<g><path style="opacity:1" fill="#f7f7f7" d="M 941.5,585.5 C 947.962,584.804 952.129,587.47 954,593.5C 954.951,599.373 954.285,605.04 952,610.5C 948.405,612.456 944.572,612.956 940.5,612C 938.185,610.891 936.685,609.057 936,606.5C 935.333,601.833 935.333,597.167 936,592.5C 936.967,589.379 938.8,587.046 941.5,585.5 Z"/></g>
<g><path style="opacity:1" fill="#fbfbfb" d="M 1117.5,598.5 C 1117.5,600.5 1117.5,602.5 1117.5,604.5C 1109.83,604.5 1102.17,604.5 1094.5,604.5C 1094.5,603.167 1094.5,601.833 1094.5,600.5C 1095.18,590.315 1100.51,585.815 1110.5,587C 1115,589.494 1117.33,593.327 1117.5,598.5 Z"/></g>
<g><path style="opacity:1" fill="#f2f2f2" d="M 1158.5,586.5 C 1166.51,584.75 1171.67,587.75 1174,595.5C 1174.5,598.817 1174.67,602.15 1174.5,605.5C 1166.5,605.5 1158.5,605.5 1150.5,605.5C 1150.18,597.82 1152.85,591.487 1158.5,586.5 Z"/></g>
<g><path style="opacity:1" fill="#f7f7f7" d="M 1366.5,585.5 C 1373.31,584.812 1377.48,587.812 1379,594.5C 1380.59,601.2 1379.09,607.034 1374.5,612C 1369.85,613.193 1365.68,612.36 1362,609.5C 1360.47,603.585 1360.14,597.585 1361,591.5C 1362.36,588.977 1364.19,586.977 1366.5,585.5 Z"/></g>
<g><path style="opacity:1" fill="#fcfcfc" d="M 1627.5,586.5 C 1637.47,584.392 1643.97,588.058 1647,597.5C 1647.67,605.167 1647.67,612.833 1647,620.5C 1645.38,632.068 1638.88,636.235 1627.5,633C 1623.83,631.332 1621.67,628.499 1621,624.5C 1619.45,615.562 1619.12,606.562 1620,597.5C 1621.04,592.721 1623.54,589.054 1627.5,586.5 Z"/></g>
<g><path style="opacity:1" fill="#fbfbfb" d="M 1881.5,586.5 C 1892.89,584.396 1899.39,589.062 1901,600.5C 1902.15,610.098 1901.15,619.431 1898,628.5C 1892.7,633.717 1886.54,634.884 1879.5,632C 1876.53,629.9 1874.7,627.066 1874,623.5C 1872.51,615.555 1872.18,607.555 1873,599.5C 1873.85,593.772 1876.69,589.439 1881.5,586.5 Z"/></g>
<g><path style="opacity:1" fill="#7b7b7b" d="M 1117.5,598.5 C 1118.47,600.607 1118.8,602.941 1118.5,605.5C 1110.17,605.5 1101.83,605.5 1093.5,605.5C 1093.22,603.585 1093.55,601.919 1094.5,600.5C 1094.5,601.833 1094.5,603.167 1094.5,604.5C 1102.17,604.5 1109.83,604.5 1117.5,604.5C 1117.5,602.5 1117.5,600.5 1117.5,598.5 Z"/></g>
<g><path style="opacity:1" fill="#fbfbfb" d="M 1754.5,610.5 C 1757.5,610.5 1760.5,610.5 1763.5,610.5C 1763.5,613.5 1763.5,616.5 1763.5,619.5C 1761.58,631.301 1754.91,635.134 1743.5,631C 1741.04,625.94 1740.88,620.773 1743,615.5C 1745.82,611.507 1749.65,609.84 1754.5,610.5 Z"/></g>
<g><path style="opacity:1" fill="#686868" d="M 1754.5,610.5 C 1757.62,609.521 1760.96,609.187 1764.5,609.5C 1764.81,613.042 1764.48,616.375 1763.5,619.5C 1763.5,616.5 1763.5,613.5 1763.5,610.5C 1760.5,610.5 1757.5,610.5 1754.5,610.5 Z"/></g>
<g><path style="opacity:1" fill="#757575" d="M 839.5,620.5 C 841.265,619.539 843.265,619.205 845.5,619.5C 845.823,626.022 845.49,632.355 844.5,638.5C 844.5,632.5 844.5,626.5 844.5,620.5C 842.833,620.5 841.167,620.5 839.5,620.5 Z"/></g>
<g><path style="opacity:1" fill="#f9f9f9" d="M 936.5,637.5 C 943.175,637.334 949.842,637.5 956.5,638C 960.594,639.35 962.261,642.183 961.5,646.5C 961.487,653.682 957.82,657.516 950.5,658C 944.245,659.127 938.245,658.46 932.5,656C 931.299,655.097 930.465,653.931 930,652.5C 927.667,645.28 929.834,640.28 936.5,637.5 Z"/></g>
<g><path style="opacity:1" fill="#f8f8f8" d="M 1361.5,637.5 C 1368.92,637.109 1376.25,637.609 1383.5,639C 1387.11,643.452 1387.45,648.285 1384.5,653.5C 1382.29,655.774 1379.62,657.274 1376.5,658C 1370.39,658.909 1364.39,658.576 1358.5,657C 1353.06,652.215 1352.23,646.715 1356,640.5C 1357.88,639.391 1359.71,638.391 1361.5,637.5 Z"/></g>
</svg>
