<svg xmlns="http://www.w3.org/2000/svg" viewBox="0 0 25000 9120"><g id="l6hUGsbo78zG178iOJ5oCwW" fill="rgb(27,43,133)" style="transform: none;"><g style="transform: none;"><path id="p1AwHxr0hD" d="M8905 9109 c-97 -14 -182 -49 -272 -110 -50 -35 -53 -35 -53 -6 0 12 -9 36 -20 54 -37 61 -165 69 -221 14 -37 -38 -44 -85 -32 -226 6 -67 7 -153 3 -194 -8 -82 0 -129 28 -154 51 -46 158 -61 231 -31 46 18 64 49 87 153 30 134 106 186 270 186 83 0 94 -2 139 -30 65 -40 87 -84 82 -157 -6 -100 -44 -123 -322 -192 -101 -25 -204 -58 -241 -76 -166 -81 -258 -247 -239 -433 20 -207 150 -360 352 -412 85 -22 246 -20 326 5 68 21 180 89 200 121 17 27 27 23 27 -10 0 -42 18 -84 32 -75 7 4 8 3 4 -4 -10 -17 35 -32 92 -32 56 0 112 26 128 58 15 31 10 434 -6 473 -16 38 -66 59 -140 59 -104 0 -131 -24 -165 -148 -31 -110 -115 -162 -258 -162 -145 0 -230 82 -198 190 18 62 10 59 361 145 266 66 416 188 450 367 54 280 -115 546 -388 612 -78 20 -185 26 -257 15z"></path><path id="p19NvJh3qM" d="M14539 9109 c-228 -24 -379 -137 -379 -283 0 -121 85 -195 225 -196 125 0 199 56 198 149 -1 56 6 61 93 61 112 0 219 -54 272 -137 39 -61 95 -233 76 -233 -2 0 -30 13 -62 29 -247 124 -531 100 -706 -60 -64 -58 -108 -124 -138 -205 -32 -89 -32 -282 0 -376 48 -140 146 -249 279 -314 95 -46 184 -64 324 -64 354 0 595 190 680 535 29 118 32 367 5 490 -23 106 -67 217 -112 285 -46 70 -124 151 -137 143 -6 -3 -7 -1 -3 5 9 14 -61 66 -139 103 -125 59 -312 86 -476 68z m316 -858 c128 -58 189 -200 136 -317 -22 -49 -81 -108 -136 -137 -57 -31 -174 -30 -232 1 -86 45 -140 118 -150 200 -11 99 42 195 136 244 45 24 65 28 130 28 52 0 89 -6 116 -19z"></path><path id="p18wrGqUuZ" d="M16254 9110 c-411 -45 -654 -400 -605 -883 15 -153 42 -253 98 -367 39 -78 63 -111 133 -181 70 -71 100 -94 170 -127 47 -22 117 -47 157 -56 93 -21 279 -21 357 -1 190 50 300 177 283 328 -7 52 -36 112 -54 112 -6 0 -15 4 -20 9 -5 5 -2 6 7 2 8 -4 5 2 -8 13 -68 59 -219 53 -284 -13 -27 -26 -29 -34 -25 -80 2 -28 8 -61 12 -73 6 -20 3 -22 -49 -28 -173 -22 -303 60 -351 218 -16 52 -32 187 -23 187 3 0 43 -18 89 -39 199 -92 390 -96 564 -11 67 32 146 95 142 113 -1 7 4 11 10 10 18 -4 79 92 102 160 44 127 34 283 -26 407 -39 81 -150 186 -243 232 -125 60 -281 85 -436 68z m200 -310 c92 -35 166 -132 166 -220 0 -84 -64 -172 -153 -210 -78 -35 -186 -33 -260 4 -88 43 -147 126 -147 207 0 95 85 198 190 230 50 15 148 9 204 -11z"></path><path id="pksrfM9RN" d="M17625 9110 c-137 -15 -238 -55 -311 -122 -57 -52 -74 -90 -74 -164 0 -121 84 -194 222 -194 128 0 202 57 200 155 -1 43 0 44 34 51 57 11 148 -2 206 -28 69 -32 115 -79 149 -153 34 -73 63 -189 46 -181 -7 2 -49 21 -94 41 -151 66 -296 81 -436 46 -111 -29 -236 -99 -220 -124 3 -5 1 -7 -4 -4 -15 9 -87 -72 -117 -132 -54 -106 -71 -271 -41 -399 48 -202 214 -359 431 -408 117 -26 322 -16 428 20 102 35 155 66 232 139 174 162 252 417 223 725 -31 337 -194 583 -453 683 -116 45 -285 65 -421 49z m295 -855 c134 -47 206 -199 151 -320 -24 -53 -110 -129 -168 -149 -90 -31 -170 -17 -249 43 -157 118 -130 340 51 422 50 23 156 25 215 4z"></path><path id="pUW5W6MnP" d="M11479 9091 c-137 -75 -171 -252 -71 -363 73 -81 182 -101 279 -53 89 45 127 116 121 223 -4 82 -34 136 -100 179 -55 37 -173 44 -229 14z"></path><path id="pPr0QTTOs" d="M6584 9070 c-109 -55 -115 -238 -9 -289 24 -12 42 -12 95 -3 54 9 69 9 87 -3 41 -27 44 -67 41 -500 -4 -498 4 -470 -118 -459 -54 4 -89 3 -108 -5 -42 -18 -72 -77 -72 -142 0 -70 24 -117 74 -143 38 -19 45 -19 279 -6 178 9 322 11 556 4 174 -5 378 -9 453 -9 193 0 182 -16 186 258 1 117 4 239 5 272 2 49 -2 66 -21 93 -34 47 -77 66 -147 66 -64 0 -131 -26 -119 -46 4 -7 3 -8 -5 -4 -17 11 -41 -55 -41 -113 0 -28 5 -82 12 -121 12 -70 12 -70 -15 -98 l-27 -27 -203 0 c-111 0 -214 3 -229 8 -44 12 -53 40 -53 168 0 84 4 121 14 132 20 25 101 23 135 -4 24 -19 26 -27 26 -90 0 -61 3 -73 25 -94 20 -21 34 -25 82 -25 107 0 130 42 112 200 -9 71 -8 137 1 265 14 186 8 231 -33 260 -22 15 -111 21 -142 9 -28 -11 -45 -60 -45 -133 0 -68 -1 -71 -30 -86 -40 -21 -93 -19 -121 4 -23 19 -24 24 -24 163 0 157 9 189 61 208 42 16 343 12 401 -5 84 -25 88 -34 88 -200 0 -129 2 -146 21 -172 35 -48 79 -64 161 -61 64 3 76 7 103 33 45 43 54 90 44 230 -10 148 -10 217 1 321 8 82 -3 132 -27 118 -7 -4 -8 -3 -4 4 11 18 -33 34 -93 36 -31 0 -192 -5 -359 -12 -459 -18 -617 -16 -917 13 -49 5 -68 2 -101 -15z"></path><path id="p13kQFlUBX" d="M10004 9079 c-23 -5 -53 -23 -70 -40 -26 -27 -29 -38 -32 -107 -5 -138 44 -175 202 -153 99 14 127 5 151 -44 13 -28 15 -93 15 -434 0 -431 -2 -450 -51 -485 -30 -20 -110 -21 -149 -1 -39 20 -45 49 -31 143 13 90 3 168 -29 212 -23 32 -86 60 -133 59 -44 0 -103 -22 -100 -37 2 -7 -3 -11 -10 -9 -6 1 -11 -4 -9 -11 1 -8 -2 -11 -8 -7 -6 4 -16 -8 -24 -27 -10 -25 -13 -97 -12 -311 l1 -279 25 -20 c24 -20 32 -20 180 -12 201 12 900 12 1102 0 l156 -9 25 25 25 25 2 219 c1 121 2 244 3 275 1 76 -26 127 -83 157 -54 27 -111 28 -168 2 -34 -15 -47 -29 -64 -67 -19 -43 -20 -58 -14 -170 7 -122 7 -123 -18 -148 -21 -21 -34 -25 -84 -25 -71 0 -106 22 -122 78 -15 54 -12 797 3 841 7 19 23 43 37 53 24 17 33 18 120 7 98 -13 158 -5 152 20 -1 7 2 10 7 7 5 -4 17 4 25 16 32 46 9 234 -25 212 -8 -4 -9 -3 -5 4 8 13 -24 32 -74 43 -21 5 -116 2 -235 -8 -169 -13 -226 -14 -365 -4 -91 7 -190 14 -220 16 -30 2 -73 0 -96 -6z"></path><path id="pa2WOne0x" d="M12955 9075 c-72 -25 -114 -104 -100 -186 8 -44 41 -92 57 -83 7 4 8 2 4 -4 -14 -22 45 -34 135 -27 55 4 94 3 106 -4 42 -22 44 -47 41 -489 -4 -515 13 -473 -180 -457 l-87 8 -34 -34 c-51 -51 -59 -134 -20 -212 8 -15 18 -25 24 -22 5 4 8 1 7 -6 -2 -8 13 -22 32 -32 31 -16 47 -18 135 -11 129 10 258 10 365 0 78 -8 87 -7 110 12 l25 20 5 595 c6 705 -7 643 131 632 67 -5 95 -3 123 9 21 9 35 20 31 26 -4 6 -1 9 6 8 8 -2 19 15 27 40 28 84 -8 180 -80 215 -36 17 -45 18 -188 3 -187 -20 -352 -20 -495 -1 -132 18 -130 18 -180 0z"></path><path id="ptEhXNcYn" d="M10 6508 l0 -558 190 0 190 0 0 -1325 0 -1325 -190 0 -190 0 0 -555 0 -555 1473 0 c853 0 1520 4 1587 10 150 12 252 40 375 100 287 141 456 403 496 768 6 62 9 257 7 518 -4 392 -6 424 -26 497 -49 179 -150 300 -318 384 -54 27 -109 52 -122 55 -36 10 -26 23 34 43 147 50 298 180 360 309 67 140 69 158 69 771 0 589 -2 619 -52 780 -46 147 -120 270 -224 374 -121 122 -237 184 -449 243 -35 9 -412 13 -1628 18 l-1582 5 0 -557z m3153 389 c214 -53 374 -160 486 -325 55 -82 87 -154 119 -272 l26 -95 4 -512 c3 -432 1 -526 -12 -595 -42 -220 -164 -337 -451 -431 -69 -23 -238 -62 -457 -107 -57 -11 -58 -12 -58 -45 l0 -33 78 -10 c42 -6 143 -20 223 -32 188 -26 283 -51 385 -100 156 -75 245 -189 279 -357 14 -71 16 -139 12 -505 -5 -451 -7 -474 -60 -620 -75 -207 -242 -378 -442 -453 -165 -62 -61 -59 -1667 -62 l-1468 -4 0 406 0 405 190 0 190 0 0 1475 0 1475 -190 0 -190 0 0 410 0 411 1468 -4 c1329 -3 1473 -5 1535 -20z"></path><path id="phGsuNid3" d="M1700 5500 l0 -600 463 2 462 3 0 38 c-1 20 -2 289 -3 597 l-2 560 -460 0 -460 0 0 -600z m780 0 l0 -450 -315 0 -315 0 0 450 0 450 315 0 315 0 0 -450z"></path><path id="pi3HWKE3k" d="M1700 3680 l0 -530 460 0 460 0 0 530 0 530 -460 0 -460 0 0 -530z m780 0 l0 -380 -315 0 -315 0 0 380 0 380 315 0 315 0 0 -380z"></path><path id="p1HAW4gsC5" d="M5118 7062 l-918 -2 0 -555 0 -555 190 0 190 0 0 -1325 0 -1325 -190 0 -190 0 0 -555 0 -555 1443 0 c887 0 1486 4 1556 10 137 12 251 40 347 85 275 127 452 369 508 694 23 133 23 1039 1 1146 -44 209 -192 373 -412 456 -35 13 -63 26 -63 29 0 3 28 16 63 29 88 33 201 105 262 167 58 60 102 137 136 239 23 68 23 83 27 488 l3 417 190 0 189 0 0 558 0 557 -687 -5 c-757 -6 -720 -3 -853 -70 -66 -33 -144 -113 -171 -176 -47 -106 -49 -132 -49 -936 l0 -758 -325 0 -325 0 -2 973 -3 972 -917 -3z m772 -1117 l0 -975 475 0 474 0 3 848 3 847 26 55 c44 94 103 140 224 176 53 15 126 18 633 21 l572 5 0 -411 0 -411 -187 -2 -187 -3 2 -375 c2 -214 -1 -417 -7 -473 -21 -187 -80 -301 -202 -387 -125 -87 -258 -130 -674 -217 l-90 -19 -3 -36 -3 -35 63 -7 c188 -21 417 -59 490 -82 228 -72 350 -186 404 -379 14 -49 18 -124 21 -426 7 -549 -10 -702 -102 -884 -105 -209 -265 -337 -504 -403 l-96 -27 -1436 -3 -1437 -3 -6 23 c-9 34 -7 761 2 775 6 9 60 13 192 15 l185 3 3 1472 2 1473 -192 2 -193 3 -3 375 c-1 206 0 390 3 408 l6 32 769 0 770 0 0 -975z"></path><path id="phx9rsBh7" d="M5890 3705 l0 -555 448 2 447 3 0 550 0 550 -447 3 -448 2 0 -555z m750 0 l0 -405 -300 0 -300 0 0 405 0 405 300 0 300 0 0 -405z"></path><path id="p1G1E8HErY" d="M12350 6508 l0 -558 193 -2 c105 -2 191 -6 190 -10 -2 -5 -3 -600 -3 -1323 l0 -1315 -190 0 -190 0 0 -555 0 -555 1443 0 c793 0 1492 4 1553 9 512 43 833 375 874 906 13 163 13 2895 0 3050 -17 209 -67 363 -164 510 -100 149 -250 270 -410 330 -169 64 -40 59 -1744 65 l-1552 5 0 -557z m3091 389 c176 -43 293 -111 411 -236 123 -131 194 -296 217 -504 15 -130 15 -2939 1 -3057 -31 -248 -127 -444 -284 -571 -72 -59 -216 -133 -300 -154 -131 -33 -223 -35 -1603 -35 l-1383 0 0 405 0 405 188 2 187 3 3 1473 2 1472 -190 0 -190 0 0 410 0 411 1438 -4 c1289 -3 1444 -5 1503 -20z"></path><path id="p19p2AWLl2" d="M14038 6093 c-2 -5 -2 -668 0 -1475 l2 -1468 450 0 450 0 0 1475 0 1475 -449 0 c-248 0 -451 -3 -453 -7z m752 -1468 l0 -1325 -305 0 -305 0 0 1325 0 1325 305 0 305 0 0 -1325z"></path><path id="p9lmtPBmi" d="M18383 7063 l-1133 -3 -2 -555 -3 -555 203 0 202 0 0 -462 0 -461 -279 -581 c-154 -320 -340 -707 -415 -861 l-134 -280 -191 -3 -190 -2 -1 -555 0 -555 713 0 714 0 252 663 c138 364 254 673 258 685 13 52 -9 102 407 -930 l168 -418 699 0 699 0 0 555 0 555 -190 2 -191 3 -429 865 -430 865 0 458 0 457 205 0 205 0 0 560 c0 308 -1 559 -2 558 -2 -2 -513 -4 -1135 -5z m987 -553 l0 -410 -200 0 -200 0 0 -569 0 -569 449 -906 450 -906 165 0 166 0 0 -405 0 -405 -568 0 -569 0 -16 38 c-20 45 -260 641 -469 1163 l-152 379 -36 0 -35 0 -299 -790 -299 -790 -584 0 -583 0 0 405 0 405 164 0 c121 0 167 3 173 13 8 13 223 455 278 572 18 39 70 147 115 240 45 94 106 220 135 280 29 61 82 171 118 245 35 74 101 211 146 304 l81 169 0 563 0 564 -205 0 -205 0 0 403 c0 222 3 407 7 410 3 4 449 7 990 7 l983 0 0 -410z"></path><path id="pfvyjZgxM" d="M9415 7053 c-80 -12 -199 -49 -280 -87 -256 -122 -420 -338 -489 -646 -21 -95 -21 -99 -21 -1695 l0 -1600 22 -92 c55 -229 160 -404 321 -534 87 -70 226 -140 337 -169 141 -37 297 -42 1155 -37 777 3 819 5 905 24 404 91 657 371 721 796 12 83 14 329 11 1665 -3 1565 -3 1567 -24 1654 -90 363 -313 600 -658 699 l-80 23 -945 2 c-520 1 -958 -1 -975 -3z m1802 -144 c358 -40 607 -255 704 -609 l24 -85 3 -1530 c2 -1113 0 -1555 -8 -1620 -46 -357 -271 -615 -609 -698 -83 -20 -113 -21 -906 -24 -861 -4 -954 -1 -1084 39 -276 85 -467 290 -543 583 l-23 90 0 1570 c0 1492 1 1574 18 1649 23 94 63 196 109 274 45 77 179 209 258 255 87 50 232 96 339 106 132 13 1604 13 1718 0z"></path><path id="p1EXxfFBIv" d="M9940 4625 l0 -1475 423 2 422 3 3 1473 2 1472 -425 0 -425 0 0 -1475z m700 0 l0 -1325 -277 2 -278 3 -3 1323 -2 1322 280 0 280 0 0 -1325z"></path><path id="prFoE1eU2" d="M21590 6255 l0 -795 685 0 685 0 0 235 0 235 315 0 315 0 -2 -422 -3 -423 -650 -5 c-629 -5 -653 -6 -727 -27 -173 -49 -272 -102 -385 -207 -126 -118 -206 -250 -257 -426 -41 -144 -46 -233 -46 -790 0 -322 4 -560 11 -615 20 -162 82 -338 161 -452 46 -68 129 -154 141 -146 6 3 7 1 3 -5 -15 -24 148 -127 273 -172 167 -61 134 -60 1492 -60 l1239 0 0 760 0 760 -625 0 -625 0 -2 -207 -3 -208 -312 -3 -313 -2 0 380 0 380 608 0 c553 0 615 2 697 19 356 73 609 323 695 683 32 136 40 288 40 796 0 519 -8 673 -45 818 -85 335 -322 577 -645 657 -133 34 -251 37 -1487 37 l-1233 0 0 -795z m2570 630 c107 -16 177 -38 265 -83 184 -94 328 -281 384 -497 37 -147 43 -268 38 -845 -4 -471 -6 -555 -21 -620 -68 -291 -219 -486 -456 -586 -161 -68 -153 -67 -892 -71 l-668 -4 0 -520 0 -519 460 0 460 0 2 203 3 202 478 3 477 2 -2 -612 -3 -613 -1070 -3 c-1081 -3 -1234 1 -1360 34 -228 58 -436 245 -518 464 -61 163 -62 172 -62 810 0 650 1 658 68 825 78 191 232 347 412 416 160 62 157 62 898 66 l677 4 0 570 0 569 -460 0 -460 0 0 -235 0 -235 -535 0 -535 0 0 645 0 645 1163 0 c963 0 1178 -3 1257 -15z"></path><path id="pI0vVE7AC" d="M20630 1754 c0 -1137 3 -1661 11 -1675 5 -11 15 -16 21 -13 7 4 8 3 4 -5 -5 -7 8 -18 36 -31 36 -16 66 -20 173 -20 116 0 136 3 175 23 25 12 51 33 57 47 10 20 13 384 13 1677 l0 1652 -245 0 -245 0 0 -1655z m338 -41 l-3 -1548 -92 -3 -93 -3 0 1551 0 1550 95 0 95 0 -2 -1547z"></path><path id="ppNYppfcb" d="M21240 1155 l0 -923 1385 461 c762 254 1379 464 1373 466 -7 2 -631 210 -1385 462 l-1373 457 0 -923z"></path></g></g><g id="l1CKH7tBv320Bq27SFRU0v3" fill="rgb(191,3,41)" style="transform: none;"><g style="transform: none;"><path id="p18l0Z46ch" d="M130 6510 l0 -440 190 0 190 0 0 -1445 0 -1445 -190 0 -190 0 0 -435 0 -436 1498 4 c1639 3 1532 0 1697 62 200 75 367 246 442 453 54 148 56 166 60 650 4 394 2 465 -12 535 -34 168 -123 282 -279 357 -102 49 -197 74 -385 100 -80 12 -181 26 -224 32 -43 6 -76 12 -75 14 2 1 100 23 218 49 448 95 613 181 705 369 53 107 57 166 53 758 l-4 543 -26 95 c-32 118 -64 190 -119 272 -112 165 -272 272 -486 325 -62 15 -207 17 -1565 20 l-1498 4 0 -441z m2460 -1000 c0 -308 0 -563 0 -567 0 -5 -193 -9 -430 -11 l-430 -2 0 570 0 570 430 0 430 0 0 -560z m0 -1830 l0 -500 -430 0 -430 0 0 500 0 500 430 0 430 0 0 -500z"></path><path id="p10XYgRuIz" d="M4316 6941 c-3 -4 -4 -201 -3 -437 l2 -429 193 -3 192 -2 -2 -1443 -3 -1442 -187 -3 c-185 -2 -188 -3 -193 -25 -3 -12 -4 -206 -3 -432 l3 -410 1470 0 1470 0 96 27 c239 66 399 194 504 403 93 184 109 330 102 914 -3 331 -7 406 -21 456 -54 193 -176 307 -404 379 -73 23 -302 61 -490 82 -35 4 -60 10 -55 14 4 4 58 17 118 29 378 78 520 125 644 211 122 86 182 201 201 387 6 54 10 267 9 473 l-1 375 186 3 186 2 0 441 0 440 -602 -4 c-537 -3 -610 -6 -663 -21 -121 -36 -180 -82 -224 -176 l-26 -55 -3 -847 -3 -848 -444 0 -445 0 0 975 0 975 -799 0 c-440 0 -802 -4 -805 -9z m2439 -3236 l0 -520 -417 -3 -418 -2 0 525 0 525 418 -2 417 -3 0 -520z"></path><path id="p18SPvaqeT" d="M9457 6938 c-101 -11 -245 -57 -327 -105 -79 -46 -213 -178 -258 -255 -46 -78 -86 -180 -109 -274 -17 -75 -18 -157 -18 -1679 l0 -1600 23 -90 c76 -293 267 -498 543 -583 130 -40 222 -43 1114 -39 824 3 853 4 936 24 338 83 563 341 609 698 8 65 10 515 8 1650 l-3 1560 -24 85 c-98 355 -346 569 -705 609 -118 13 -1671 13 -1789 -1z m1301 -2310 l-3 -1443 -392 -3 -393 -2 0 1445 0 1445 395 0 395 0 -2 -1442z"></path><path id="p1CwM55xDt" d="M12470 6510 l0 -440 190 0 190 0 -2 -1442 -3 -1443 -187 -3 -188 -2 0 -435 0 -435 1413 0 c890 0 1442 4 1493 10 120 15 189 35 289 85 253 124 395 342 435 665 14 118 14 2987 -1 3117 -23 208 -94 373 -217 504 -118 125 -234 193 -411 236 -59 15 -216 17 -1533 20 l-1468 4 0 -441z m2440 -1885 l0 -1445 -420 0 -420 0 -2 1441 c-2 792 -1 1443 1 1445 2 2 193 4 423 4 l418 0 0 -1445z"></path><path id="pp1tQOz3N" d="M17367 6943 c-4 -3 -7 -201 -7 -440 l0 -433 205 0 205 0 0 -534 0 -533 -81 -169 c-45 -93 -111 -230 -146 -304 -36 -74 -89 -184 -118 -245 -29 -60 -90 -186 -135 -280 -45 -93 -97 -201 -115 -240 -55 -117 -270 -559 -278 -572 -6 -10 -52 -13 -173 -13 l-164 0 0 -435 0 -435 613 0 614 0 299 790 c164 434 301 790 304 790 3 0 74 -170 158 -379 209 -522 449 -1118 469 -1163 l16 -38 599 0 598 0 0 435 0 435 -166 0 -165 0 -450 906 -449 906 0 539 0 539 200 0 200 0 0 440 0 440 -1013 0 c-558 0 -1017 -3 -1020 -7z"></path><path id="poINcxWt6" d="M21710 6255 l0 -675 565 0 565 0 0 235 0 235 430 0 430 0 0 -539 0 -540 -677 -4 c-741 -4 -738 -4 -898 -66 -180 -69 -334 -225 -412 -416 -68 -167 -68 -172 -68 -855 0 -565 2 -622 19 -695 43 -187 112 -312 236 -428 87 -82 214 -153 325 -181 127 -33 279 -37 1390 -34 l1100 3 3 643 2 642 -507 -2 -508 -3 -3 -202 -2 -203 -430 0 -430 0 0 489 0 490 668 4 c739 4 731 3 892 71 237 100 388 295 456 586 15 65 18 150 21 650 5 608 0 727 -38 875 -68 261 -250 460 -499 547 -135 47 -170 48 -1437 48 l-1193 0 0 -675z"></path><path id="ptDCxQIZN" d="M20750 1710 l0 -1580 28 -1 c106 -2 204 1 212 6 7 4 10 545 10 1581 l0 1574 -125 0 -125 0 0 -1580z"></path></g></g></svg>