<?xml version="1.0" encoding="UTF-8" standalone="no"?>
<!-- Created with Inkscape (http://www.inkscape.org/) -->

<svg
   version="1.1"
   id="svg1"
   width="819.20001"
   height="272.95999"
   viewBox="0 0 819.20001 272.95999"
   sodipodi:docname="lenovo.svg"
   inkscape:version="1.3.2 (091e20e, 2023-11-25, custom)"
   xmlns:inkscape="http://www.inkscape.org/namespaces/inkscape"
   xmlns:sodipodi="http://sodipodi.sourceforge.net/DTD/sodipodi-0.dtd"
   xmlns="http://www.w3.org/2000/svg"
   xmlns:svg="http://www.w3.org/2000/svg">
  <defs
     id="defs1" />
  <sodipodi:namedview
     id="namedview1"
     pagecolor="#ffffff"
     bordercolor="#000000"
     borderopacity="0.25"
     inkscape:showpageshadow="2"
     inkscape:pageopacity="0.0"
     inkscape:pagecheckerboard="0"
     inkscape:deskcolor="#d1d1d1"
     inkscape:zoom="1.4611816"
     inkscape:cx="407.54687"
     inkscape:cy="23.611028"
     inkscape:window-width="1920"
     inkscape:window-height="1001"
     inkscape:window-x="-9"
     inkscape:window-y="-9"
     inkscape:window-maximized="1"
     inkscape:current-layer="g1" />
  <g
     inkscape:groupmode="layer"
     inkscape:label="Image"
     id="g1">
    <g
       id="g2"
       style="display:inline">
      <path
         style="fill:#fdfcfc"
         d="m 226.4,200.42071 c -11.45817,-0.99992 -21.56092,-4.37454 -30.11431,-10.05906 -4.40195,-2.92551 -10.62882,-9.06055 -13.5041,-13.30496 -5.35279,-7.90165 -8.34197,-16.7757 -8.98804,-26.68305 -1.10996,-17.02091 4.68421,-32.29632 16.48764,-43.46706 11.13665,-10.539697 26.70113,-15.817474 43.44392,-14.731449 14.60315,0.947237 25.69773,5.606833 34.59936,14.531349 7.2792,7.29791 12.06892,16.59981 14.34229,27.85352 0.62961,3.11666 0.69605,3.88628 0.35272,4.08569 -0.30801,0.1789 -69.9617,29.13656 -72.69948,30.22391 -0.69368,0.27551 -0.4502,0.63849 1.44,2.14675 3.98831,3.18243 9.68035,5.4582 15.69369,6.27457 3.97157,0.53918 12.08231,0.22417 15.74631,-0.61156 5.72843,-1.30661 11.78192,-4.27119 17.82634,-8.73012 0.91648,-0.67608 1.81051,-1.22925 1.98671,-1.22925 0.17621,0 4.38275,3.12546 9.34786,6.94545 l 9.02748,6.94545 -2.98558,2.83069 c -9.2936,8.81145 -24.59226,15.31858 -39.63671,16.85908 -3.08604,0.316 -9.41644,0.37745 -12.3661,0.12005 z m 0.8,-60.41356 c 13.464,-5.58404 24.58778,-10.253 24.71951,-10.37548 0.31433,-0.29225 -2.31533,-4.54152 -4.11401,-6.64785 -2.88053,-3.37322 -7.62359,-6.23822 -12.1834,-7.35926 -3.26751,-0.80333 -9.3802,-0.72147 -13.0621,0.17491 -11.69497,2.84724 -19.60004,12.54825 -20.95242,25.71258 -0.18577,1.80837 -0.24197,4.55912 -0.12488,6.11277 0.17919,2.37784 0.29393,2.8019 0.72509,2.67997 0.28172,-0.0797 11.52821,-4.71361 24.99221,-10.29764 z m 233.2973,60.26556 c -8.16042,-0.85219 -17.78571,-4.17595 -24.56963,-8.48427 -21.13814,-13.4244 -30.20663,-39.54916 -21.95619,-63.25205 2.57385,-7.39449 6.34711,-13.44063 12.08904,-19.37107 9.79856,-10.120235 22.59841,-15.933918 37.40464,-16.98915 4.32453,-0.308208 10.62485,-0.03206 14.39237,0.630834 23.22428,4.086292 40.43394,20.457446 45.06889,42.872996 0.82988,4.01342 1.14257,12.88249 0.60545,17.17284 -2.5969,20.74352 -16.88598,37.93212 -37.15004,44.68847 -7.99393,2.66531 -17.20746,3.63754 -25.88453,2.7314 z m 13.2918,-25.08665 c 10.25305,-2.27905 17.67496,-9.66133 20.68969,-20.57921 0.57114,-2.06839 0.67611,-3.33779 0.67867,-8.20685 0.003,-5.36404 -0.0571,-5.95799 -0.87161,-8.64 -3.16499,-10.42162 -10.24469,-17.44838 -20.36112,-20.2089 -2.4562,-0.67024 -8.29682,-0.9082 -11.20472,-0.45652 -11.57957,1.79865 -20.10841,10.24992 -22.63126,22.42542 -0.76516,3.69275 -0.68524,10.36213 0.1656,13.81976 2.19865,8.93474 7.51554,15.79322 15.27693,19.70636 5.30831,2.67634 12.20704,3.48492 18.25782,2.13994 z m 209.09091,25.10107 c -3.87687,-0.43588 -8.87518,-1.51975 -12.48,-2.70627 -4.3938,-1.4462 -10.9127,-4.73323 -14.72,-7.42227 -3.89906,-2.75385 -10.12674,-8.98198 -12.87766,-12.8786 -3.87317,-5.48627 -6.87272,-12.35515 -8.45424,-19.35999 -1.096,-4.85441 -1.39234,-14.31085 -0.61436,-19.60472 1.24807,-8.49271 4.67612,-16.79532 9.83553,-23.82131 2.61293,-3.55824 8.38901,-9.20306 12.11668,-11.84132 6.83191,-4.835278 15.34732,-8.340794 23.93226,-9.852125 6.17888,-1.087758 15.33889,-0.947793 21.99151,0.33603 9.86074,1.902928 19.8579,6.889965 27.27107,13.604045 8.47086,7.67202 14.35991,18.45423 16.43004,30.08158 0.94318,5.29763 0.95156,13.49277 0.0191,18.72366 -4.31633,24.21461 -24.0258,41.95712 -49.71736,44.75567 -3.55282,0.387 -9.21946,0.3806 -12.73261,-0.0144 z m 13.76,-25.27882 c 5.31819,-1.21909 10.79287,-4.63482 14.32356,-8.93667 2.1137,-2.57537 4.65429,-7.6504 5.5225,-11.03164 3.7564,-14.62926 -2.43188,-29.33373 -14.88606,-35.37201 -4.24488,-2.05809 -6.26291,-2.56319 -11.04,-2.76328 -5.42925,-0.22741 -9.1383,0.52065 -13.6,2.7429 -7.47115,3.72118 -11.9699,9.50711 -14.45617,18.59239 -0.45188,1.65125 -0.56763,3.30028 -0.56153,8 0.007,5.51988 0.0663,6.11007 0.87484,8.73226 4.72257,15.31555 18.58699,23.52858 33.82286,20.03605 z M 75.919262,130.64 l 0.08074,-68.080002 14.639089,-0.08323 14.639089,-0.08323 0.0809,54.887722 0.0809,54.88773 32.64,0.0755 32.64,0.0755 0.0836,13.2 0.0836,13.2 H 123.36281 75.838523 Z M 293.76,146.24 V 93.759997 h 14.4 14.4 v 7.364743 7.36474 l 3.44,-3.46765 c 6.52432,-6.576753 14.51057,-10.758932 23.67718,-12.399067 3.65186,-0.653409 11.14444,-0.662565 15.12663,-0.01849 10.98118,1.776097 20.38191,7.186472 26.41734,15.203887 4.6662,6.19853 7.3499,13.34094 8.12798,21.63183 0.20212,2.15371 0.33044,16.28239 0.33061,36.4 l 2.7e-4,32.87999 h -14.56 -14.56 v -31.3088 c 0,-30.13162 -0.0238,-31.40174 -0.63215,-33.78047 -1.96004,-7.66369 -8.29212,-13.59419 -16.9961,-15.9182 -3.49674,-0.93365 -9.55846,-1.0001 -12.93175,-0.14176 -7.92785,2.01725 -13.81764,7.42539 -16.41135,15.06924 l -0.86866,2.56 -0.0903,31.75999 -0.0904,31.76 H 308.14966 293.76 Z m 247.43021,0.24 C 529.3595,117.748 519.67987,94.131997 519.67992,93.999997 c 5e-5,-0.132 7.38238,-0.24 16.40519,-0.24 H 552.4902 L 565.44001,129.28 c 7.12239,19.536 13.02807,35.51999 13.12374,35.51999 0.0957,0 6.00057,-15.98399 13.12202,-35.51999 l 12.94809,-35.520003 h 16.40308 c 9.02169,0 16.40311,0.108 16.40316,0.24 5e-5,0.132 -9.67958,23.748003 -21.5103,52.480003 l -21.51039,52.23999 h -15.8594 -15.85941 z"
         id="path3" />
      <path
         style="fill:#e01309"
         d="M 0,136.48 V 0 h 409.60001 409.6 v 136.48 136.47999 h -409.6 H 0 Z m 238.7661,63.82066 c 15.04445,-1.5405 30.34311,-8.04763 39.63671,-16.85908 l 2.98558,-2.83069 -9.02748,-6.94545 c -4.96511,-3.81999 -9.17165,-6.94545 -9.34786,-6.94545 -0.1762,0 -1.07023,0.55317 -1.98671,1.22925 -6.04442,4.45893 -12.09791,7.42351 -17.82634,8.73012 -3.664,0.83573 -11.77474,1.15074 -15.74631,0.61156 -6.01334,-0.81637 -11.70538,-3.09214 -15.69369,-6.27457 -1.8902,-1.50826 -2.13368,-1.87124 -1.44,-2.14675 2.73778,-1.08735 72.39147,-30.04501 72.69948,-30.22391 0.34333,-0.19941 0.27689,-0.96903 -0.35272,-4.08569 -2.27337,-11.25371 -7.06309,-20.55561 -14.34229,-27.85352 -4.97234,-4.98512 -10.05574,-8.277946 -16.79584,-10.879694 -12.1621,-4.69469 -28.28798,-5.055572 -40.92537,-0.915872 -16.1949,5.305056 -28.86897,17.749066 -34.11688,33.497576 -4.58874,13.77042 -3.55209,30.01743 2.71391,42.53396 4.94624,9.88027 13.69259,18.43624 23.8054,23.28722 10.55516,5.06317 23.7411,7.30172 35.76041,6.07099 z m -37.2834,-52.67584 c -0.11709,-1.55365 -0.0609,-4.3044 0.12488,-6.11277 1.35238,-13.16433 9.25745,-22.86534 20.95242,-25.71258 3.6819,-0.89638 9.79459,-0.97824 13.0621,-0.17491 4.55981,1.12104 9.30287,3.98604 12.1834,7.35926 1.79868,2.10633 4.42834,6.3556 4.11401,6.64785 -0.24329,0.2262 -48.77205,20.40738 -49.71172,20.67312 -0.43116,0.12193 -0.5459,-0.30213 -0.72509,-2.67997 z m 271.8434,52.6787 c 26.61447,-2.70223 47.01781,-21.98592 50.20577,-47.45068 0.53712,-4.29035 0.22443,-13.15942 -0.60545,-17.17284 -4.63495,-22.41555 -21.84461,-38.786704 -45.06889,-42.872996 -9.0868,-1.598814 -20.36716,-0.721977 -29.36193,2.282342 -8.71723,2.911616 -16.12643,7.560224 -22.43508,14.075974 -5.74193,5.93044 -9.51519,11.97658 -12.08904,19.37107 -7.08502,20.35473 -1.40737,43.06957 14.34853,57.40479 11.87931,10.80818 28.32425,16.05609 45.00609,14.36234 z m -9.00609,-24.654 c -9.87655,-1.16114 -18.70124,-8.01151 -22.56282,-17.51492 -1.58633,-3.90398 -2.18781,-7.1914 -2.17631,-11.8946 0.0172,-7.007 1.52862,-12.40583 4.91022,-17.53887 4.16211,-6.31778 10.60975,-10.42307 18.22891,-11.60655 2.9079,-0.45168 8.74852,-0.21372 11.20472,0.45652 10.11643,2.76052 17.19613,9.78728 20.36112,20.2089 0.81452,2.68201 0.87443,3.27596 0.87161,8.64 -0.003,6.34093 -0.35975,8.31652 -2.33997,12.96996 -4.74946,11.16107 -16.23336,17.7214 -28.49748,16.27956 z m 231.29261,24.65199 c 22.77703,-2.48107 41.07048,-16.72883 47.80276,-37.23091 1.91046,-5.81801 2.57518,-10.16238 2.57518,-16.8306 0,-6.72771 -0.70408,-11.27551 -2.64386,-17.07722 -4.62098,-13.82095 -13.80149,-24.32583 -27.02669,-30.925548 -7.34587,-3.665776 -13.96354,-5.466761 -22.24514,-6.053965 -4.24998,-0.301344 -10.83598,-0.02014 -14.45665,0.617258 -8.58494,1.511331 -17.10035,5.016847 -23.93226,9.852125 -3.72767,2.63826 -9.50375,8.28308 -12.11668,11.84132 -5.15941,7.02599 -8.58746,15.3286 -9.83553,23.82131 -0.77798,5.29387 -0.48164,14.75031 0.61436,19.60472 1.58152,7.00484 4.58107,13.87372 8.45424,19.35999 2.75092,3.89662 8.9786,10.12475 12.87766,12.8786 3.8073,2.68904 10.3262,5.97607 14.72,7.42227 7.91463,2.60508 17.13731,3.60028 25.21261,2.72065 z m -8.89261,-24.61871 c -11.50362,-1.43241 -20.31167,-9.06411 -23.90286,-20.71054 -0.80856,-2.62219 -0.86768,-3.21238 -0.87484,-8.73226 -0.006,-4.69972 0.10965,-6.34875 0.56153,-8 2.48627,-9.08528 6.98502,-14.87121 14.45617,-18.59239 4.4617,-2.22225 8.17075,-2.97031 13.6,-2.7429 4.77709,0.20009 6.79512,0.70519 11.04,2.76328 12.45418,6.03828 18.64246,20.74275 14.88606,35.37201 -0.86821,3.38124 -3.4088,8.45627 -5.5225,11.03164 -5.65424,6.88921 -15.32226,10.72202 -24.24356,9.61116 z m -515.91646,9.83719 -0.0836,-13.2 -32.64,-0.0755 -32.64,-0.0755 -0.0809,-54.88773 -0.0809,-54.887727 -14.63909,0.08323 -14.639089,0.08323 -0.08074,68.079997 -0.08074,68.07999 h 47.524289 47.52429 z m 151.82611,-18.56 0.0903,-31.75999 0.86866,-2.56 c 2.07867,-6.12601 5.93511,-10.53207 11.61134,-13.26618 3.79068,-1.82588 6.32956,-2.37242 11.04001,-2.37653 3.14191,-0.003 4.57743,0.15068 6.69175,0.71522 8.70398,2.32401 15.03606,8.25451 16.9961,15.91821 0.60838,2.37872 0.63215,3.64884 0.63215,33.78046 v 31.30881 h 14.56 14.56 l -2.7e-4,-32.88 c -1.7e-4,-20.1176 -0.12849,-34.24628 -0.33061,-36.39999 -0.77808,-8.29089 -3.46178,-15.4333 -8.12798,-21.63184 -6.03543,-8.01741 -15.43616,-13.427785 -26.41734,-15.203882 -3.98219,-0.64408 -11.47477,-0.634924 -15.12663,0.01849 -9.16657,1.64013 -17.15282,5.822309 -23.67714,12.399062 l -3.44,3.46765 v -7.36474 -7.364743 h -14.4 -14.4 V 146.24 198.71999 h 14.38966 14.38965 z M 615.9298,146.48 c 11.83072,-28.732 21.51035,-52.348003 21.5103,-52.480003 -5e-5,-0.132 -7.38147,-0.24 -16.40316,-0.24 H 604.63386 L 591.68577,129.28 c -7.12145,19.536 -13.02636,35.51999 -13.12202,35.51999 -0.0957,0 -6.00135,-15.98399 -13.12374,-35.51999 L 552.4902,93.759997 h -16.40509 c -9.02281,0 -16.40514,0.108 -16.40519,0.24 -5e-5,0.132 9.67958,23.748003 21.51029,52.480003 l 21.51039,52.23999 h 15.85941 15.8594 z"
         id="path2" />
    </g>
  </g>
</svg>
