<svg xmlns="http://www.w3.org/2000/svg" viewBox="0 0 35090 24810"><g id="l3dbQhdQTXWzclb12vl7jHp" fill="rgb(36,55,131)" style="transform: none;"><g style="transform: none;"><path id="p1AsF3s9IL" d="M 0 12405 l 0 -12405 17545 0 17545 0 0 12405 0 12405 -17545 0 -17545 0 0 -12405 z  m 19586 2780 c 28 -28 22 -51 -17 -79 -19 -13 -24 -13 -45 1 -35 23 -40 51 -13 79 28 30 44 30 75 -1 z  m -1086 -145 c 46 -25 45 -76 -1 -101 -17 -8 -25 -7 -41 8 -37 33 -39 49 -13 77 27 29 29 30 55 16 z  m 2187 -22 c 30 -28 29 -52 -3 -77 -31 -24 -58 -15 -76 25 -10 21 -8 28 12 49 29 31 37 31 67 3 z  M20123.40631532453 14818.441020402475 C 20123.40631532453 14761.86538674792 20077.542702427614 14716.001773851007 20020.96706877306 14716.001773851007 19964.39143511851 14716.001773851007 19918.527822221593 14761.86538674792 19918.527822221593 14818.441020402475 19918.527822221593 14875.01665405703 19964.39143511851 14920.880266953944 20020.96706877306 14920.880266953944 20077.542702427614 14920.880266953944 20123.40631532453 14875.01665405703 20123.40631532453 14818.441020402475 Z M20076.0 14903.0  m -898 -40 c 17 -20 32 -47 32 -61 0 -51 -78 -120 -120 -107 -30 9 -69 44 -86 76 -13 27 -13 33 2 64 9 19 30 44 47 55 44 28 84 20 125 -27 z  m -897 -262 c 23 -23 39 -48 39 -62 0 -63 -86 -132 -132 -108 -34 17 -58 41 -74 72 -13 24 -13 32 2 62 18 39 67 75 103 75 14 0 39 -15 62 -39 z  m 2656 19 c 33 -19 63 -66 63 -95 0 -40 -71 -105 -114 -105 -21 0 -86 59 -97 87 -10 28 6 66 43 99 41 38 62 41 105 14 z  M19692.20535232201 14437.68478578947 C 19692.20535232201 14359.341367293358 19628.695463226188 14295.831478197535 19550.352044730076 14295.831478197535 19472.008626233965 14295.831478197535 19408.498737138143 14359.341367293358 19408.498737138143 14437.68478578947 19408.498737138143 14516.028204285582 19472.008626233965 14579.538093381405 19550.352044730076 14579.538093381405 19628.695463226188 14579.538093381405 19692.20535232201 14516.028204285582 19692.20535232201 14437.68478578947 Z M19612.0 14564.0  m 1998 -4 c 35 -19 42 -45 19 -74 -24 -31 -52 -33 -79 -6 -25 25 -25 31 1 64 23 29 31 31 59 16 z  m -4063 -22 c 29 -27 29 -36 1 -65 -26 -27 -49 -29 -70 -5 -27 31 -28 39 -7 66 25 32 45 33 76 4 z  M20395.0618479492 14319.51296745897 C 20395.0618479492 14241.441730522472 20331.772605603248 14178.152488176522 20253.701368666752 14178.152488176522 20175.630131730257 14178.152488176522 20112.340889384304 14241.441730522472 20112.340889384304 14319.51296745897 20112.340889384304 14397.584204395467 20175.630131730257 14460.873446741418 20253.701368666752 14460.873446741418 20331.772605603248 14460.873446741418 20395.0618479492 14397.584204395467 20395.0618479492 14319.51296745897 Z M20325.0 14440.0  M19005.90756477276 14302.59234745546 C 19005.90756477276 14223.900303135282 18942.115058606512 14160.107796969036 18863.423014286334 14160.107796969036 18784.730969966156 14160.107796969036 18720.93846379991 14223.900303135282 18720.93846379991 14302.59234745546 18720.93846379991 14381.284391775638 18784.730969966156 14445.076897941884 18863.423014286334 14445.076897941884 18942.115058606512 14445.076897941884 19005.90756477276 14381.284391775638 19005.90756477276 14302.59234745546 Z M18917.0 14434.0  M21012.469817565 13967.37401597363 C 21012.469817565 13888.79084018144 20948.765566778355 13825.086589394792 20870.182390986163 13825.086589394792 20791.59921519397 13825.086589394792 20727.894964407325 13888.79084018144 20727.894964407325 13967.37401597363 20727.894964407325 14045.95719176582 20791.59921519397 14109.661442552468 20870.182390986163 14109.661442552468 20948.765566778355 14109.661442552468 21012.469817565 14045.95719176582 21012.469817565 13967.37401597363 Z M20931.0 14094.0  M18405.367126185483 13964.476697583457 C 18405.367126185483 13886.279310485063 18341.97561892762 13822.887803227197 18263.778231829223 13822.887803227197 18185.580844730826 13822.887803227197 18122.189337472963 13886.279310485063 18122.189337472963 13964.476697583457 18122.189337472963 14042.674084681852 18185.580844730826 14106.065591939718 18263.778231829223 14106.065591939718 18341.97561892762 14106.065591939718 18405.367126185483 14042.674084681852 18405.367126185483 13964.476697583457 Z M18331.0 14087.0  m -751 -13 c 32 -19 60 -63 60 -93 0 -12 -15 -38 -33 -58 -26 -28 -42 -36 -67 -36 -25 0 -41 8 -67 36 -44 49 -43 79 6 128 43 43 60 47 101 23 z  m 4061 -7 c 19 -12 42 -38 51 -56 16 -32 16 -36 -2 -70 -20 -39 -65 -71 -100 -71 -34 0 -100 71 -100 107 0 37 33 81 74 99 40 17 38 18 77 -9 z  m -4791 -257 c 11 -11 20 -27 20 -35 0 -18 -35 -55 -53 -55 -22 0 -57 31 -57 51 0 23 34 59 55 59 8 0 24 -9 35 -20 z  M22353.747698200266 13756.2441308845 C 22353.747698200266 13727.589752325208 22330.518734755165 13704.360788880109 22301.864356195874 13704.360788880109 22273.209977636583 13704.360788880109 22249.981014191482 13727.589752325208 22249.981014191482 13756.2441308845 22249.981014191482 13784.89850944379 22273.209977636583 13808.12747288889 22301.864356195874 13808.12747288889 22330.518734755165 13808.12747288889 22353.747698200266 13784.89850944379 22353.747698200266 13756.2441308845 Z M22341.0 13789.0  M17954.977832370678 13429.376744755187 C 17954.977832370678 13351.011787558382 17891.45048270805 13287.484437895753 17813.085525511244 13287.484437895753 17734.72056831444 13287.484437895753 17671.19321865181 13351.011787558382 17671.19321865181 13429.376744755187 17671.19321865181 13507.741701951993 17734.72056831444 13571.269051614621 17813.085525511244 13571.269051614621 17891.45048270805 13571.269051614621 17954.977832370678 13507.741701951993 17954.977832370678 13429.376744755187 Z M17845.0 13570.0  M21483.722384348494 13427.130180061522 C 21483.722384348494 13348.882702707839 21420.290270915673 13285.450589275017 21342.04279356199 13285.450589275017 21263.795316208303 13285.450589275017 21200.363202775483 13348.882702707839 21200.363202775483 13427.130180061522 21200.363202775483 13505.377657415205 21263.795316208303 13568.809770848027 21342.04279356199 13568.809770848027 21420.290270915673 13568.809770848027 21483.722384348494 13505.377657415205 21483.722384348494 13427.130180061522 Z M21401.0 13554.0  m 1606 -120 c -9 -9 -28 6 -21 18 4 6 10 6 17 -1 6 -6 8 -13 4 -17 z  m -15533 -310 c 4 -15 7 -342 6 -728 -1 -385 -1 -709 -1 -718 1 -17 32 -18 509 -18 l 509 0 35 -95 36 -95 -1225 2 -1225 3 -34 90 c -19 50 -34 91 -34 93 0 1 245 2 545 2 l 545 0 0 745 0 745 164 0 164 0 6 -26 z  m 3902 -69 c 19 -49 34 -93 34 -97 0 -5 -353 -8 -785 -8 l -785 0 2 -281 3 -282 550 2 c 303 1 555 -2 562 -7 9 -6 73 -161 73 -178 0 -2 -268 -4 -595 -4 l -595 0 0 -270 0 -270 751 -2 752 -3 28 -75 c 16 -41 32 -83 35 -92 5 -17 -44 -18 -945 -18 l -951 0 0 840 0 840 916 -2 916 -3 34 -90 z  m 3065 -2 l 36 -98 -734 -3 -733 -2 0 -740 0 -740 -170 0 -170 0 0 840 0 840 868 0 868 0 35 -97 z  m 2919 10 c 18 -49 35 -94 38 -101 4 -11 -127 -13 -732 -10 l -736 3 0 -743 0 -742 -167 2 -168 3 -3 785 c -2 432 0 809 3 838 l 6 52 863 0 863 0 33 -87 z  m -12576 51 c 244 -63 381 -270 346 -524 -24 -174 -145 -312 -325 -371 -31 -10 -203 -14 -740 -19 -685 -5 -701 -5 -745 -26 -90 -42 -129 -101 -137 -208 -8 -110 10 -180 61 -231 79 -79 34 -75 970 -75 l 831 0 29 -83 c 16 -45 31 -88 34 -94 5 -16 -1783 -19 -1869 -3 -87 16 -210 82 -264 142 -89 99 -120 192 -113 343 4 87 9 111 36 168 57 123 165 212 307 253 53 15 137 18 755 23 l 695 6 48 28 c 26 15 60 47 75 69 26 40 27 47 27 163 0 113 -2 124 -25 158 -28 41 -77 77 -129 95 -25 9 -257 12 -866 12 l -833 0 -10 28 c -6 15 -23 57 -36 95 l -25 67 921 0 c 807 0 928 -2 982 -16 z  m 13928 -244 c 77 -140 191 -349 255 -465 64 -115 128 -232 143 -260 64 -119 158 -289 225 -410 39 -71 88 -160 109 -198 l 37 -67 -168 2 -168 3 -40 75 c -23 41 -58 107 -79 145 -36 64 -70 127 -181 330 -21 39 -59 108 -85 155 -26 47 -64 117 -85 155 -21 39 -59 108 -85 155 -26 47 -64 117 -85 155 -21 39 -61 111 -88 160 -27 50 -63 115 -80 145 -16 30 -45 83 -64 118 l -35 62 167 -2 168 -3 139 -255 z  m 2175 218 c -13 -24 -62 -110 -107 -193 -403 -734 -482 -878 -630 -1150 -48 -88 -101 -185 -118 -215 l -31 -55 -166 -3 -167 -2 40 72 c 142 262 452 827 547 998 29 52 83 151 121 220 37 69 85 157 106 195 21 39 51 94 65 123 l 27 52 169 0 169 0 -25 -42 z  m 1253 -598 l 0 -640 38 0 c 34 1 108 56 850 640 l 814 640 169 0 169 0 0 -830 0 -830 -165 0 -165 0 0 640 0 640 -35 0 c -31 0 -112 -61 -707 -527 -370 -289 -738 -577 -817 -640 l -143 -113 -169 0 -169 0 0 830 0 830 165 0 165 0 0 -640 z  m 4350 -95 l 0 -735 511 -2 512 -3 28 -75 c 16 -41 32 -83 35 -92 5 -17 -57 -18 -1219 -18 l -1224 0 -35 95 -36 95 547 0 546 0 -3 721 c -2 396 -1 727 2 735 4 11 37 14 171 14 l 165 0 0 -735 z  m 2340 -95 l 0 -830 -170 0 -170 0 0 830 0 830 170 0 170 0 0 -830 z  m 3032 819 c 174 -37 311 -162 354 -323 8 -28 14 -87 14 -131 0 -143 -44 -250 -138 -336 -59 -54 -86 -70 -171 -102 -55 -21 -74 -22 -756 -27 l -700 -5 -60 -30 c -42 -21 -69 -43 -90 -73 -27 -40 -30 -52 -34 -140 -2 -54 2 -112 8 -134 15 -49 62 -103 115 -131 l 41 -22 847 -3 c 791 -2 846 -4 853 -20 4 -9 20 -52 36 -94 l 28 -78 -914 0 c -637 0 -930 3 -967 11 -205 44 -350 198 -367 393 -24 261 96 440 344 513 54 16 124 18 737 20 665 2 679 2 725 23 55 24 97 61 121 105 18 33 24 205 9 257 -10 39 -63 95 -111 121 l -41 22 -850 5 -849 5 -33 85 c -17 47 -32 88 -32 93 -1 12 1820 9 1881 -4 z  m -9157 -224 c 14 -13 25 -28 25 -33 0 -11 -50 -62 -60 -62 -12 0 -60 48 -60 60 0 14 46 60 60 60 6 0 22 -11 35 -25 z  m -5765 -417 c 19 -13 39 -37 46 -54 11 -27 10 -36 -5 -65 -10 -18 -34 -41 -54 -52 -33 -17 -38 -17 -65 -3 -40 20 -72 63 -72 94 0 30 69 102 97 102 11 0 35 -10 53 -22 z  M17692.948188953673 12023.004988551009 C 17692.948188953673 11944.879181252434 17629.614708588626 11881.545700887387 17551.48890129005 11881.545700887387 17473.363093991473 11881.545700887387 17410.029613626426 11944.879181252434 17410.029613626426 12023.004988551009 17410.029613626426 12101.130795849584 17473.363093991473 12164.46427621463 17551.48890129005 12164.46427621463 17629.614708588626 12164.46427621463 17692.948188953673 12101.130795849584 17692.948188953673 12023.004988551009 Z M17630.0 12140.0  M16516.750536600463 11935.511251670116 C 16516.750536600463 11906.89143493488 16493.54959104959 11883.690489384006 16464.929774314354 11883.690489384006 16436.30995757912 11883.690489384006 16413.109012028246 11906.89143493488 16413.109012028246 11935.511251670116 16413.109012028246 11964.131068405351 16436.30995757912 11987.332013956226 16464.929774314354 11987.332013956226 16493.54959104959 11987.332013956226 16516.750536600463 11964.131068405351 16516.750536600463 11935.511251670116 Z M16500.0 11972.0  m 600 -317 c 39 -20 70 -62 70 -95 0 -53 -77 -118 -125 -106 -34 9 -85 72 -85 106 0 43 59 106 103 109 4 1 21 -6 37 -14 z  M17930.411629826012 11365.243036902355 C 17930.411629826012 11286.809002135155 17866.8282817283 11223.225654037444 17788.3942469611 11223.225654037444 17709.9602121939 11223.225654037444 17646.376864096186 11286.809002135155 17646.376864096186 11365.243036902355 17646.376864096186 11443.677071669556 17709.9602121939 11507.260419767266 17788.3942469611 11507.260419767266 17866.8282817283 11507.260419767266 17930.411629826012 11443.677071669556 17930.411629826012 11365.243036902355 Z M17833.0 11501.0  M21492.06734505466 11351.298968018147 C 21492.06734505466 11272.969856930591 21428.569054405114 11209.471566281045 21350.23994331756 11209.471566281045 21271.910832230005 11209.471566281045 21208.41254158046 11272.969856930591 21208.41254158046 11351.298968018147 21208.41254158046 11429.628079105703 21271.910832230005 11493.12636975525 21350.23994331756 11493.12636975525 21428.569054405114 11493.12636975525 21492.06734505466 11429.628079105703 21492.06734505466 11351.298968018147 Z M21387.0 11489.0  m -4550 -431 c 30 -28 29 -52 -3 -77 -27 -21 -35 -20 -66 7 -24 20 -23 41 4 69 27 29 36 29 65 1 z  m 5500 0 c 13 -12 23 -29 23 -39 0 -22 -48 -61 -64 -52 -52 29 -59 62 -20 92 33 26 33 26 61 -1 z  M18393.485444074187 10824.922043354298 C 18393.485444074187 10746.833578348494 18330.182235618613 10683.53036989292 18252.09377061281 10683.53036989292 18174.005305607006 10683.53036989292 18110.702097151432 10746.833578348494 18110.702097151432 10824.922043354298 18110.702097151432 10903.010508360101 18174.005305607006 10966.313716815675 18252.09377061281 10966.313716815675 18330.182235618613 10966.313716815675 18393.485444074187 10903.010508360101 18393.485444074187 10824.922043354298 Z M18321.0 10947.0  M21012.16917663229 10807.753114741054 C 21012.16917663229 10729.218592078654 20948.504367000198 10665.553782446561 20869.9698443378 10665.553782446561 20791.435321675403 10665.553782446561 20727.77051204331 10729.218592078654 20727.77051204331 10807.753114741054 20727.77051204331 10886.287637403453 20791.435321675403 10949.952447035546 20869.9698443378 10949.952447035546 20948.504367000198 10949.952447035546 21012.16917663229 10886.287637403453 21012.16917663229 10807.753114741054 Z M20932.0 10934.0  M17618.32881980004 10817.749017756916 C 17618.32881980004 10760.974573016383 17572.304038674014 10714.949791890358 17515.529593933483 10714.949791890358 17458.75514919295 10714.949791890358 17412.730368066925 10760.974573016383 17412.730368066925 10817.749017756916 17412.730368066925 10874.52346249745 17458.75514919295 10920.548243623474 17515.529593933483 10920.548243623474 17572.304038674014 10920.548243623474 17618.32881980004 10874.52346249745 17618.32881980004 10817.749017756916 Z M17550.0 10915.0  m 4101 -36 c 15 -10 32 -33 39 -50 12 -28 11 -36 -6 -68 -10 -20 -36 -45 -57 -56 l -37 -20 -37 20 c -46 25 -76 74 -67 109 7 28 49 74 79 86 24 10 51 4 86 -21 z  M18999.605705865033 10444.911834991697 C 18999.605705865033 10366.868246125614 18936.338876708593 10303.601416969173 18858.29528784251 10303.601416969173 18780.251698976426 10303.601416969173 18716.984869819986 10366.868246125614 18716.984869819986 10444.911834991697 18716.984869819986 10522.95542385778 18780.251698976426 10586.22225301422 18858.29528784251 10586.22225301422 18936.338876708593 10586.22225301422 18999.605705865033 10522.95542385778 18999.605705865033 10444.911834991697 Z M18902.0 10581.0  M20405.43801906305 10444.950910229963 C 20405.43801906305 10367.40986649859 20342.578583231843 10304.550430667383 20265.03753950047 10304.550430667383 20187.496495769097 10304.550430667383 20124.63705993789 10367.40986649859 20124.63705993789 10444.950910229963 20124.63705993789 10522.491953961337 20187.496495769097 10585.351389792544 20265.03753950047 10585.351389792544 20342.578583231843 10585.351389792544 20405.43801906305 10522.491953961337 20405.43801906305 10444.950910229963 Z M20331.0 10567.0  M19698.6549894827 10336.897946636534 C 19698.6549894827 10258.692038904761 19635.256574886716 10195.293624308777 19557.05066715494 10195.293624308777 19478.844759423166 10195.293624308777 19415.44634482718 10258.692038904761 19415.44634482718 10336.897946636534 19415.44634482718 10415.103854368308 19478.844759423166 10478.502268964292 19557.05066715494 10478.502268964292 19635.256574886716 10478.502268964292 19698.6549894827 10415.103854368308 19698.6549894827 10336.897946636534 Z M19639.0 10451.0  m -1379 -96 c 39 -20 70 -62 70 -95 0 -54 -75 -117 -125 -104 -35 9 -85 69 -85 102 0 34 23 68 64 93 37 23 39 23 76 4 z  m 2678 -5 c 18 -11 40 -36 49 -56 17 -34 17 -37 -2 -72 -11 -21 -37 -46 -57 -57 -37 -20 -38 -20 -74 0 -20 11 -44 35 -55 57 -17 34 -18 41 -5 66 22 42 67 79 101 81 6 1 25 -8 43 -19 z  m -3370 -68 c 12 -19 11 -24 -12 -47 -31 -31 -41 -31 -71 0 -32 31 -31 40 2 71 23 21 29 23 46 11 11 -7 27 -23 35 -35 z  M21647.734157599152 10276.01794868503 C 21647.734157599152 10247.436286536968 21624.56414245247 10224.266271390285 21595.982480304407 10224.266271390285 21567.400818156344 10224.266271390285 21544.23080300966 10247.436286536968 21544.23080300966 10276.01794868503 21544.23080300966 10304.599610833093 21567.400818156344 10327.769625979776 21595.982480304407 10327.769625979776 21624.56414245247 10327.769625979776 21647.734157599152 10304.599610833093 21647.734157599152 10276.01794868503 Z M21635.0 10310.0  M20116.51097360799 9980.587041307086 C 20116.51097360799 9924.4246398283 20070.98235157767 9878.896017797975 20014.81995009888 9878.896017797975 19958.657548620093 9878.896017797975 19913.128926589772 9924.4246398283 19913.128926589772 9980.587041307086 19913.128926589772 10036.749442785873 19958.657548620093 10082.278064816197 20014.81995009888 10082.278064816197 20070.98235157767 10082.278064816197 20116.51097360799 10036.749442785873 20116.51097360799 9980.587041307086 Z M20088.0 10045.0  M19204.48673480179 9957.706598988332 C 19204.48673480179 9900.88978658983 19158.42760790288 9854.830659690917 19101.610795504377 9854.830659690917 19044.793983105876 9854.830659690917 18998.734856206964 9900.88978658983 18998.734856206964 9957.706598988332 18998.734856206964 10014.523411386834 19044.793983105876 10060.582538285747 19101.610795504377 10060.582538285747 19158.42760790288 10060.582538285747 19204.48673480179 10014.523411386834 19204.48673480179 9957.706598988332 Z M19158.0 10042.0  m -658 -182 c 46 -24 45 -76 0 -100 -24 -13 -54 0 -70 30 -8 15 -5 25 16 49 29 35 28 35 54 21 z  m 2193 -18 c 23 -20 22 -41 -5 -69 -27 -29 -36 -29 -65 -1 -29 28 -29 43 2 74 25 25 34 25 68 -4 z  m -1099 -164 c 19 -26 7 -54 -31 -71 -23 -10 -28 -8 -49 16 -30 35 -30 38 2 70 29 29 50 25 78 -15 z "></path></g></g><g id="l6yFCbbi0zXrGpihZ5sfj7b" fill="rgb(255,255,255)" style="transform: none;"><g style="transform: none;"><path id="pxf7nwpWF" d="M 2 12408 l -2 -12408 17545 0 17545 0 -2 12408 -3 12407 -2 -12402 -3 -12403 -17535 0 -17535 0 -3 12403 -2 12402 -3 -12407 z "></path><path id="pL08np2kq" d="M20232.050261352513 15491.348064835032 C 20232.050261352513 15517.83603575388 20210.57751829736 15539.308778809034 20184.08954737851 15539.308778809034 20157.60157645966 15539.308778809034 20136.128833404506 15517.83603575388 20136.128833404506 15491.348064835032 20136.128833404506 15464.860093916184 20157.60157645966 15443.38735086103 20184.08954737851 15443.38735086103 20210.57751829736 15443.38735086103 20232.050261352513 15464.860093916184 20232.050261352513 15491.348064835032 Z M20146.0 15519.0 "></path><path id="p5jcMD11Y" d="M18977.117260500778 15480.413600550795 C 18977.117260500778 15507.176758624275 18955.421434179578 15528.872584945475 18928.658276106096 15528.872584945475 18901.895118032615 15528.872584945475 18880.199291711415 15507.176758624275 18880.199291711415 15480.413600550795 18880.199291711415 15453.650442477316 18901.895118032615 15431.954616156116 18928.658276106096 15431.954616156116 18955.421434179578 15431.954616156116 18977.117260500778 15453.650442477316 18977.117260500778 15480.413600550795 Z M18896.0 15517.0 "></path><path id="pcUjLQ0aX" d="M19639.518500408674 15152.853289952323 C 19639.518500408674 15203.548237157333 19598.422125799127 15244.644611766882 19547.727178594116 15244.644611766882 19497.032231389105 15244.644611766882 19455.935856779557 15203.548237157333 19455.935856779557 15152.853289952323 19455.935856779557 15102.158342747314 19497.032231389105 15061.061968137765 19547.727178594116 15061.061968137765 19598.422125799127 15061.061968137765 19639.518500408674 15102.158342747314 19639.518500408674 15152.853289952323 Z M19525.0 15242.0 "></path><path id="p7wlFse0t" d="M17775.91050635839 15038.25356763468 C 17775.91050635839 15065.161643196718 17754.09720120102 15086.974948354084 17727.189125638983 15086.974948354084 17700.281050076945 15086.974948354084 17678.467744919577 15065.161643196718 17678.467744919577 15038.25356763468 17678.467744919577 15011.345492072642 17700.281050076945 14989.532186915276 17727.189125638983 14989.532186915276 17754.09720120102 14989.532186915276 17775.91050635839 15011.345492072642 17775.91050635839 15038.25356763468 Z M17703.0 15080.0 "></path><path id="pdmMTzSsi" d="M21438.171026160817 15034.75469936219 C 21438.171026160817 15061.125707970838 21416.79309979214 15082.503634339513 21390.422091183493 15082.503634339513 21364.051082574846 15082.503634339513 21342.67315620617 15061.125707970838 21342.67315620617 15034.75469936219 21342.67315620617 15008.383690753544 21364.051082574846 14987.005764384869 21390.422091183493 14987.005764384869 21416.79309979214 14987.005764384869 21438.171026160817 15008.383690753544 21438.171026160817 15034.75469936219 Z M21373.0 15080.0 "></path><path id="p1HNOdcDoF" d="M18573.331287110905 14990.121718222365 C 18573.331287110905 15040.528485473893 18532.46852851195 15081.391244072849 18482.06176126042 15081.391244072849 18431.654994008888 15081.391244072849 18390.792235409932 15040.528485473893 18390.792235409932 14990.121718222365 18390.792235409932 14939.714950970836 18431.654994008888 14898.85219237188 18482.06176126042 14898.85219237188 18532.46852851195 14898.85219237188 18573.331287110905 14939.714950970836 18573.331287110905 14990.121718222365 Z M18415.0 15054.0 "></path><path id="p1B8Q69lUW" d="M20747.08495797371 14980.922549059022 C 20747.08495797371 15031.445938446883 20706.127658453683 15072.40323796691 20655.60426906582 15072.40323796691 20605.08087967796 15072.40323796691 20564.12358015793 15031.445938446883 20564.12358015793 14980.922549059022 20564.12358015793 14930.39915967116 20605.08087967796 14889.441860151133 20655.60426906582 14889.441860151133 20706.127658453683 14889.441860151133 20747.08495797371 14930.39915967116 20747.08495797371 14980.922549059022 Z M20592.0 15048.0 "></path><path id="pZbiH3m89" d="M20162.44530023354 14817.555382285445 C 20162.44530023354 14895.78926290283 20099.0242091333 14959.210354003068 20020.790328515915 14959.210354003068 19942.556447898532 14959.210354003068 19879.13535679829 14895.78926290283 19879.13535679829 14817.555382285445 19879.13535679829 14739.32150166806 19942.556447898532 14675.900410567823 20020.790328515915 14675.900410567823 20099.0242091333 14675.900410567823 20162.44530023354 14739.32150166806 20162.44530023354 14817.555382285445 Z M19970.0 14953.0 "></path><path id="p1C2w2IfgW" d="M19243.70119688162 14800.995663381287 C 19243.70119688162 14878.985998106356 19180.477538736282 14942.209656251693 19102.487204011213 14942.209656251693 19024.496869286144 14942.209656251693 18961.273211140808 14878.985998106356 18961.273211140808 14800.995663381287 18961.273211140808 14723.005328656218 19024.496869286144 14659.781670510882 19102.487204011213 14659.781670510882 19180.477538736282 14659.781670510882 19243.70119688162 14723.005328656218 19243.70119688162 14800.995663381287 Z M19025.0 14920.0 "></path><path id="p083nDUo3" d="M18354.720904877533 14533.162010905953 C 18354.720904877533 14611.49952365619 18291.215803334675 14675.004625199048 18212.87829058444 14675.004625199048 18134.5407778342 14675.004625199048 18071.035676291343 14611.49952365619 18071.035676291343 14533.162010905953 18071.035676291343 14454.824498155716 18134.5407778342 14391.319396612858 18212.87829058444 14391.319396612858 18291.215803334675 14391.319396612858 18354.720904877533 14454.824498155716 18354.720904877533 14533.162010905953 Z M18179.0 14671.0 "></path><path id="paEWaFJRu" d="M21033.211559555355 14529.672967468508 C 21033.211559555355 14607.495516327788 20970.1239187288 14670.583157154342 20892.30136986952 14670.583157154342 20814.47882101024 14670.583157154342 20751.391180183688 14607.495516327788 20751.391180183688 14529.672967468508 20751.391180183688 14451.850418609229 20814.47882101024 14388.762777782675 20892.30136986952 14388.762777782675 20970.1239187288 14388.762777782675 21033.211559555355 14451.850418609229 21033.211559555355 14529.672967468508 Z M20834.0 14660.0 "></path><path id="p1Hu3iBlM6" d="M19730.483945226966 14438.047006940375 C 19730.483945226966 14537.675150073246 19649.719377600835 14618.439717699377 19550.091234467964 14618.439717699377 19450.463091335092 14618.439717699377 19369.69852370896 14537.675150073246 19369.69852370896 14438.047006940375 19369.69852370896 14338.418863807503 19450.463091335092 14257.654296181372 19550.091234467964 14257.654296181372 19649.719377600835 14257.654296181372 19730.483945226966 14338.418863807503 19730.483945226966 14438.047006940375 Z M19480.0 14604.0 "></path><path id="pFpMYgT1s" d="M21680.02753022161 14512.766403361084 C 21680.02753022161 14563.444490065913 21638.944823748036 14604.52719653949 21588.266737043206 14604.52719653949 21537.588650338377 14604.52719653949 21496.505943864802 14563.444490065913 21496.505943864802 14512.766403361084 21496.505943864802 14462.088316656254 21537.588650338377 14421.005610182678 21588.266737043206 14421.005610182678 21638.944823748036 14421.005610182678 21680.02753022161 14462.088316656254 21680.02753022161 14512.766403361084 Z M21549.0 14596.0 "></path><path id="pjNBwgVAz" d="M17602.071038850554 14505.672810593038 C 17602.071038850554 14556.01887167083 17561.257492328827 14596.832418192556 17510.911431251036 14596.832418192556 17460.565370173244 14596.832418192556 17419.751823651517 14556.01887167083 17419.751823651517 14505.672810593038 17419.751823651517 14455.326749515245 17460.565370173244 14414.51320299352 17510.911431251036 14414.51320299352 17561.257492328827 14414.51320299352 17602.071038850554 14455.326749515245 17602.071038850554 14505.672810593038 Z M17474.0 14590.0 "></path><path id="p80WDQf2O" d="M20433.1726267961 14319.651794263615 C 20433.1726267961 14419.107923632277 20352.54750387761 14499.733046550766 20253.09137450895 14499.733046550766 20153.63524514029 14499.733046550766 20073.0101222218 14419.107923632277 20073.0101222218 14319.651794263615 20073.0101222218 14220.195664894953 20153.63524514029 14139.570541976464 20253.09137450895 14139.570541976464 20352.54750387761 14139.570541976464 20433.1726267961 14220.195664894953 20433.1726267961 14319.651794263615 Z M20167.0 14479.0 "></path><path id="psle5R6l8" d="M19043.776755306546 14301.585389060585 C 19043.776755306546 14401.213063446921 18963.01256767456 14481.977251078906 18863.384893288225 14481.977251078906 18763.75721890189 14481.977251078906 18682.993031269903 14401.213063446921 18682.993031269903 14301.585389060585 18682.993031269903 14201.957714674249 18763.75721890189 14121.193527042264 18863.384893288225 14121.193527042264 18963.01256767456 14121.193527042264 19043.776755306546 14201.957714674249 19043.776755306546 14301.585389060585 Z M18785.0 14466.0 "></path><path id="pdcl16lIF" d="M16809.59014162813 14366.399238458549 C 16809.59014162813 14393.20695189509 16787.85819604866 14414.938897474562 16761.050482612118 14414.938897474562 16734.242769175577 14414.938897474562 16712.510823596105 14393.20695189509 16712.510823596105 14366.399238458549 16712.510823596105 14339.591525022008 16734.242769175577 14317.859579442536 16761.050482612118 14317.859579442536 16787.85819604866 14317.859579442536 16809.59014162813 14339.591525022008 16809.59014162813 14366.399238458549 Z M16730.0 14400.0 "></path><path id="p1DOL3Rf1L" d="M22409.59010663698 14356.399114266773 C 22409.59010663698 14383.206832511625 22387.8581571596 14404.938781989003 22361.05043891475 14404.938781989003 22334.2427206699 14404.938781989003 22312.51077119252 14383.206832511625 22312.51077119252 14356.399114266773 22312.51077119252 14329.59139602192 22334.2427206699 14307.859446544542 22361.05043891475 14307.859446544542 22387.8581571596 14307.859446544542 22409.59010663698 14329.59139602192 22409.59010663698 14356.399114266773 Z M22330.0 14390.0 "></path><path id="pBIHTijwi" d="M18444.746854605273 13964.938639368722 C 18444.746854605273 14064.599848209724 18363.95548192651 14145.391220888489 18264.294273085507 14145.391220888489 18164.633064244503 14145.391220888489 18083.84169156574 14064.599848209724 18083.84169156574 13964.938639368722 18083.84169156574 13865.27743052772 18164.633064244503 13784.486057848955 18264.294273085507 13784.486057848955 18363.95548192651 13784.486057848955 18444.746854605273 13865.27743052772 18444.746854605273 13964.938639368722 Z M18245.0 14145.0 "></path><path id="p12tUjerPE" d="M21050.974042120735 13968.01807031862 C 21050.974042120735 14067.684115079623 20970.178749154235 14148.479408046125 20870.51270439323 14148.479408046125 20770.846659632225 14148.479408046125 20690.051366665724 14067.684115079623 20690.051366665724 13968.01807031862 20690.051366665724 13868.352025557617 20770.846659632225 13787.556732591114 20870.51270439323 13787.556732591114 20970.178749154235 13787.556732591114 21050.974042120735 13868.352025557617 21050.974042120735 13968.01807031862 Z M20795.0 14131.0 "></path><path id="pGgcUOgq3" d="M17674.991611110836 13985.384396634456 C 17674.991611110836 14060.003626223172 17614.50077363442 14120.494463699588 17539.881544045704 14120.494463699588 17465.262314456988 14120.494463699588 17404.77147698057 14060.003626223172 17404.77147698057 13985.384396634456 17404.77147698057 13910.76516704574 17465.262314456988 13850.274329569324 17539.881544045704 13850.274329569324 17614.50077363442 13850.274329569324 17674.991611110836 13910.76516704574 17674.991611110836 13985.384396634456 Z M17455.0 14089.0 "></path><path id="p10nYS03OT" d="M21737.877053416512 13977.639802258804 C 21737.877053416512 14055.758371233036 21674.54944087272 14119.08598377683 21596.430871898487 14119.08598377683 21518.312302924252 14119.08598377683 21454.98469038046 14055.758371233036 21454.98469038046 13977.639802258804 21454.98469038046 13899.521233284571 21518.312302924252 13836.193620740778 21596.430871898487 13836.193620740778 21674.54944087272 13836.193620740778 21737.877053416512 13899.521233284571 21737.877053416512 13977.639802258804 Z M21531.0 14102.0 "></path><path id="p0IScSUb" d="M16906.363086651603 13774.701519771004 C 16906.363086651603 13825.582796295983 16865.115662283522 13866.830220664066 16814.234385758544 13866.830220664066 16763.353109233565 13866.830220664066 16722.105684865484 13825.582796295983 16722.105684865484 13774.701519771004 16722.105684865484 13723.820243246026 16763.353109233565 13682.572818877943 16814.234385758544 13682.572818877943 16865.115662283522 13682.572818877943 16906.363086651603 13723.820243246026 16906.363086651603 13774.701519771004 Z M16769.0 13855.0 "></path><path id="p18NGddFJ4" d="M22393.58989227635 13756.87082704235 C 22393.58989227635 13807.458876542747 22352.58017537839 13848.468593440712 22301.99212587799 13848.468593440712 22251.404076377592 13848.468593440712 22210.39435947963 13807.458876542747 22210.39435947963 13756.87082704235 22210.39435947963 13706.282777541954 22251.404076377592 13665.273060643989 22301.99212587799 13665.273060643989 22352.58017537839 13665.273060643989 22393.58989227635 13706.282777541954 22393.58989227635 13756.87082704235 Z M22239.0 13821.0 "></path><path id="p2YnRc2IQ" d="M17992.85075828236 13429.225891448903 C 17992.85075828236 13528.727204018422 17912.1890071425 13609.38895515828 17812.687694572982 13609.38895515828 17713.186382003463 13609.38895515828 17632.524630863605 13528.727204018422 17632.524630863605 13429.225891448903 17632.524630863605 13329.724578879384 17713.186382003463 13249.062827739526 17812.687694572982 13249.062827739526 17912.1890071425 13249.062827739526 17992.85075828236 13329.724578879384 17992.85075828236 13429.225891448903 Z M17733.0 13591.0 "></path><path id="pWSe2qkun" d="M21522.264397031962 13427.205388523478 C 21522.264397031962 13526.749242010148 21441.5681596649 13607.445479377211 21342.02430617823 13607.445479377211 21242.48045269156 13607.445479377211 21161.7842153245 13526.749242010148 21161.7842153245 13427.205388523478 21161.7842153245 13327.661535036808 21242.48045269156 13246.965297669745 21342.02430617823 13246.965297669745 21441.5681596649 13246.965297669745 21522.264397031962 13327.661535036808 21522.264397031962 13427.205388523478 Z M21262.0 13589.0 "></path><path id="pc8KNPRIl" d="M23049.54669244976 13443.313554277414 C 23049.54669244976 13472.256682409572 23026.08365122632 13495.719723633014 22997.14052309416 13495.719723633014 22968.197394962 13495.719723633014 22944.73435373856 13472.256682409572 22944.73435373856 13443.313554277414 22944.73435373856 13414.370426145257 22968.197394962 13390.907384921815 22997.14052309416 13390.907384921815 23026.08365122632 13390.907384921815 23049.54669244976 13414.370426145257 23049.54669244976 13443.313554277414 Z M22968.0 13489.0 "></path><path id="pHXUgBmBa" d="M16170.88425196165 13437.701646338664 C 16170.88425196165 13464.534434862771 16149.131979007383 13486.286707817038 16122.299190483276 13486.286707817038 16095.46640195917 13486.286707817038 16073.714129004902 13464.534434862771 16073.714129004902 13437.701646338664 16073.714129004902 13410.868857814557 16095.46640195917 13389.11658486029 16122.299190483276 13389.11658486029 16149.131979007383 13389.11658486029 16170.88425196165 13410.868857814557 16170.88425196165 13437.701646338664 Z M16090.0 13470.0 "></path><path id="p40YSK14o" d="M 7110 12435 l 0 -745 -556 0 -555 0 7 -22 c 4 -13 24 -68 44 -123 l 38 -100 1266 -3 1266 -2 -31 82 c -17 46 -38 102 -46 126 l -15 42 -509 0 c -478 0 -509 1 -509 18 0 9 0 344 0 745 l 0 727 -200 0 -200 0 0 -745 z "></path><path id="p10XDIbONH" d="M 9480 12310 l 0 -870 990 0 c 545 0 990 3 990 8 -1 4 -20 59 -44 122 l -43 115 -751 3 -752 2 0 240 0 240 605 0 c 333 0 605 3 605 8 0 20 -83 228 -93 234 -7 4 -259 8 -562 8 l -550 -1 -3 251 -2 250 789 0 c 471 0 792 4 796 9 3 5 -15 63 -39 128 l -44 118 -946 3 -946 2 0 -870 z "></path><path id="p13GGH8Z8v" d="M 12640 12310 l 0 -870 200 0 200 0 0 740 0 740 738 0 c 406 0 741 2 744 5 3 3 -16 62 -41 130 l -46 125 -897 0 -898 0 0 -870 z "></path><path id="pnvHKiqx2" d="M 15566 13165 c -3 -8 -4 -399 -3 -868 l 2 -852 198 -3 197 -2 0 742 0 743 737 -3 c 405 -1 740 1 744 5 4 4 -13 63 -38 131 l -45 122 -893 0 c -787 0 -894 -2 -899 -15 z "></path><path id="plGtFZic3" d="M 2835 13143 c 4 -10 22 -58 40 -108 18 -49 36 -98 40 -107 7 -17 56 -18 840 -18 609 0 841 -3 866 -12 52 -18 101 -54 129 -95 22 -32 25 -47 25 -129 0 -87 -2 -95 -30 -136 -20 -28 -50 -52 -85 -70 l -55 -27 -685 -4 c -617 -3 -691 -5 -745 -21 -143 -42 -250 -130 -308 -253 -29 -63 -32 -77 -35 -199 -6 -184 20 -268 113 -372 54 -60 177 -126 264 -142 63 -12 1951 -14 1951 -3 0 5 -19 61 -42 125 l -43 118 -831 0 c -936 0 -891 -3 -970 75 -95 96 -79 278 32 354 72 50 92 51 792 51 564 0 663 2 716 16 161 42 287 155 333 302 22 69 26 243 8 321 -30 126 -108 228 -221 288 -123 65 -82 63 -1144 63 -912 0 -962 -1 -955 -17 z "></path><path id="p127JiyPjc" d="M 18180 13156 c 0 -2 19 -39 43 -82 24 -44 61 -110 82 -149 21 -38 59 -108 85 -155 26 -47 64 -116 85 -155 21 -38 59 -108 85 -155 26 -47 64 -116 85 -155 21 -38 59 -108 85 -155 26 -47 64 -116 85 -155 111 -203 145 -266 181 -330 21 -38 56 -104 79 -145 l 40 -75 213 -3 214 -2 -53 97 c -28 54 -84 157 -124 228 -66 119 -156 283 -225 410 -15 28 -79 145 -143 260 -64 116 -178 325 -255 465 l -139 255 -212 3 c -116 1 -211 1 -211 -2 z "></path><path id="p1FCD1lQLy" d="M 20517 13108 c -14 -29 -44 -84 -65 -123 -21 -38 -69 -126 -106 -195 -38 -69 -92 -168 -121 -220 -29 -52 -103 -187 -165 -300 -147 -266 -153 -278 -252 -460 -47 -85 -111 -201 -142 -258 -31 -56 -56 -105 -56 -108 0 -2 95 -3 211 -2 l 210 3 31 55 c 17 30 70 127 118 215 179 328 486 888 625 1140 42 77 97 177 122 223 l 45 82 -214 0 -214 0 -27 -52 z "></path><path id="pWToh5FNP" d="M 21780 12300 l 0 -860 199 0 199 0 143 113 c 424 334 1490 1167 1494 1167 3 0 5 -288 5 -640 l 0 -640 195 0 195 0 0 860 0 860 -199 0 -199 0 -812 -637 c -446 -351 -815 -639 -821 -641 -5 -2 -9 241 -9 637 l 0 641 -195 0 -195 0 0 -860 z "></path><path id="pZ285Jyz5" d="M 26124 13147 c -3 -8 -4 -338 -2 -735 l 3 -722 -556 -2 -557 -3 46 -122 45 -123 1263 0 c 695 0 1264 3 1264 8 0 4 -20 59 -44 122 l -43 115 -512 3 -511 2 0 735 0 735 -195 0 c -154 0 -197 -3 -201 -13 z "></path><path id="pg7eqW3MU" d="M 28460 12300 l 0 -860 200 0 200 0 0 860 0 860 -200 0 -200 0 0 -860 z "></path><path id="pwGXDQH9k" d="M 29930 13153 c 0 -5 19 -60 43 -123 l 42 -115 850 -5 c 805 -5 852 -6 885 -24 93 -49 124 -102 124 -211 0 -91 -13 -125 -67 -172 -74 -64 -54 -63 -797 -66 -740 -3 -723 -2 -849 -65 -74 -37 -157 -122 -192 -196 -51 -109 -61 -309 -23 -424 51 -150 186 -266 352 -301 37 -8 341 -11 1007 -11 525 0 955 2 955 4 0 2 -12 35 -26 72 -14 38 -35 93 -46 121 l -19 53 -847 2 -847 3 -41 22 c -51 27 -98 80 -114 128 -7 21 -10 67 -8 105 5 92 39 143 123 185 l 60 30 700 5 c 682 5 701 6 756 27 85 32 112 48 171 102 100 91 138 192 138 366 0 61 -6 133 -14 161 -43 161 -180 286 -354 323 -61 13 -1962 16 -1962 4 z "></path><path id="p2RtkgKJi" d="M22760.83524167664 12860.65910732037 C 22760.83524167664 12911.04847651761 22719.98658698736 12951.897131206884 22669.597217790124 12951.897131206884 22619.207848592887 12951.897131206884 22578.35919390361 12911.04847651761 22578.35919390361 12860.65910732037 22578.35919390361 12810.269738123132 22619.207848592887 12769.421083433857 22669.597217790124 12769.421083433857 22719.98658698736 12769.421083433857 22760.83524167664 12810.269738123132 22760.83524167664 12860.65910732037 Z M22605.0 12925.0 "></path><path id="p31OqkQ5b" d="M17028.52546405934 12396.10647430188 C 17028.52546405934 12471.060576219335 16967.763158923386 12531.82288135529 16892.809057005932 12531.82288135529 16817.854955088478 12531.82288135529 16757.092649952523 12471.060576219335 16757.092649952523 12396.10647430188 16757.092649952523 12321.152372384424 16817.854955088478 12260.390067248469 16892.809057005932 12260.390067248469 16967.763158923386 12260.390067248469 17028.52546405934 12321.152372384424 17028.52546405934 12396.10647430188 Z M16799.0 12491.0 "></path><path id="pOfMYBgGC" d="M17731.88955427273 12023.395900285972 C 17731.88955427273 12123.033175489174 17651.117583640895 12203.805146121007 17551.480308437694 12203.805146121007 17451.843033234494 12203.805146121007 17371.07106260266 12123.033175489174 17371.07106260266 12023.395900285972 17371.07106260266 11923.75862508277 17451.843033234494 11842.986654450937 17551.480308437694 11842.986654450937 17651.117583640895 11842.986654450937 17731.88955427273 11923.75862508277 17731.88955427273 12023.395900285972 Z M17513.0 12200.0 "></path><path id="pUN2ur1Wm" d="M16557.258130793183 11936.149921193442 C 16557.258130793183 11987.211422790488 16515.864605137223 12028.604948446451 16464.803103540176 12028.604948446451 16413.74160194313 12028.604948446451 16372.34807628717 11987.211422790488 16372.34807628717 11936.149921193442 16372.34807628717 11885.088419596397 16413.74160194313 11843.694893940434 16464.803103540176 11843.694893940434 16515.864605137223 11843.694893940434 16557.258130793183 11885.088419596397 16557.258130793183 11936.149921193442 Z M16422.0 12020.0 "></path><path id="pmVGiw1Mx" d="M17205.13555216328 11560.052767130752 C 17205.13555216328 11637.989063452802 17141.95570079902 11701.168914817066 17064.019404476967 11701.168914817066 16986.083108154915 11701.168914817066 16922.903256790654 11637.989063452802 16922.903256790654 11560.052767130752 16922.903256790654 11482.116470808702 16986.083108154915 11418.936619444437 17064.019404476967 11418.936619444437 17141.95570079902 11418.936619444437 17205.13555216328 11482.116470808702 17205.13555216328 11560.052767130752 Z M17004.0 11690.0 "></path><path id="p1GQVTXWu8" d="M17968.972979640934 11365.566642996802 C 17968.972979640934 11465.005208298748 17888.36209521179 11545.616092727894 17788.923529909844 11545.616092727894 17689.4849646079 11545.616092727894 17608.874080178754 11465.005208298748 17608.874080178754 11365.566642996802 17608.874080178754 11266.128077694857 17689.4849646079 11185.51719326571 17788.923529909844 11185.51719326571 17888.36209521179 11185.51719326571 17968.972979640934 11266.128077694857 17968.972979640934 11365.566642996802 Z M17744.0 11540.0 "></path><path id="pNG2HdpVm" d="M21529.398844848827 11351.157314118154 C 21529.398844848827 11450.554273166963 21448.821688951997 11531.131429063795 21349.42472990319 11531.131429063795 21250.02777085438 11531.131429063795 21169.45061495755 11450.554273166963 21169.45061495755 11351.157314118154 21169.45061495755 11251.760355069346 21250.02777085438 11171.183199172514 21349.42472990319 11171.183199172514 21448.821688951997 11171.183199172514 21529.398844848827 11251.760355069346 21529.398844848827 11351.157314118154 Z M21275.0 11516.0 "></path><path id="pFfwIVATQ" d="M 22968 11398 c -24 -20 -28 -44 -12 -67 21 -29 60 -27 80 4 15 23 15 27 0 50 -18 27 -43 32 -68 13 z "></path><path id="pr7gihgSP" d="M16897.571365878393 11022.045874845131 C 16897.571365878393 11072.766995147214 16856.453773781475 11113.88458724413 16805.732653479394 11113.88458724413 16755.011533177312 11113.88458724413 16713.893941080394 11072.766995147214 16713.893941080394 11022.045874845131 16713.893941080394 10971.324754543048 16755.011533177312 10930.207162446131 16805.732653479394 10930.207162446131 16856.453773781475 10930.207162446131 16897.571365878393 10971.324754543048 16897.571365878393 11022.045874845131 Z M16784.0 11113.0 "></path><path id="p6ne2WdP0" d="M22397.050784794737 11020.481530815347 C 22397.050784794737 11070.823510675178 22356.240546753863 11111.63374871605 22305.898566894033 11111.63374871605 22255.556587034203 11111.63374871605 22214.74634899333 11070.823510675178 22214.74634899333 11020.481530815347 22214.74634899333 10970.139550955515 22255.556587034203 10929.329312914642 22305.898566894033 10929.329312914642 22356.240546753863 10929.329312914642 22397.050784794737 10970.139550955515 22397.050784794737 11020.481530815347 Z M22243.0 11086.0 "></path><path id="pHQ4TecWM" d="M18432.595180379973 10824.6444059042 C 18432.595180379973 10924.301265638398 18351.80733334888 11005.089112669491 18252.15047361468 11005.089112669491 18152.493613880484 11005.089112669491 18071.70576684939 10924.301265638398 18071.70576684939 10824.6444059042 18071.70576684939 10724.987546170003 18152.493613880484 10644.19969913891 18252.15047361468 10644.19969913891 18351.80733334888 10644.19969913891 18432.595180379973 10724.987546170003 18432.595180379973 10824.6444059042 Z M18192.0 10996.0 "></path><path id="pn3nE8CeN" d="M21050.14157122784 10807.721179079197 C 21050.14157122784 10907.218930536723 20969.48270693964 10987.877794824919 20869.984955482116 10987.877794824919 20770.48720402459 10987.877794824919 20689.828339736392 10907.218930536723 20689.828339736392 10807.721179079197 20689.828339736392 10708.223427621671 20770.48720402459 10627.564563333475 20869.984955482116 10627.564563333475 20969.48270693964 10627.564563333475 21050.14157122784 10708.223427621671 21050.14157122784 10807.721179079197 Z M20811.0 10979.0 "></path><path id="ptVYDhaBO" d="M17657.0935510921 10818.100427311765 C 17657.0935510921 10896.198218646488 17593.78278215312 10959.508987585468 17515.684990818398 10959.508987585468 17437.587199483674 10959.508987585468 17374.276430544694 10896.198218646488 17374.276430544694 10818.100427311765 17374.276430544694 10740.002635977042 17437.587199483674 10676.691867038062 17515.684990818398 10676.691867038062 17593.78278215312 10676.691867038062 17657.0935510921 10740.002635977042 17657.0935510921 10818.100427311765 Z M17455.0 10946.0 "></path><path id="psoQkRsF4" d="M21731.633676749698 10798.53078473465 C 21731.633676749698 10876.518718699306 21668.41196480521 10939.740430643795 21590.424030840553 10939.740430643795 21512.436096875896 10939.740430643795 21449.21438493141 10876.518718699306 21449.21438493141 10798.53078473465 21449.21438493141 10720.542850769994 21512.436096875896 10657.321138825506 21590.424030840553 10657.321138825506 21668.41196480521 10657.321138825506 21731.633676749698 10720.542850769994 21731.633676749698 10798.53078473465 Z M21540.0 10932.0 "></path><path id="p1GGTPsl75" d="M19039.099955048463 10445.86924121332 C 19039.099955048463 10545.423236181316 18958.395496386405 10626.127694843372 18858.84150141841 10626.127694843372 18759.287506450415 10626.127694843372 18678.583047788357 10545.423236181316 18678.583047788357 10445.86924121332 18678.583047788357 10346.315246245325 18759.287506450415 10265.61078758327 18858.84150141841 10265.61078758327 18958.395496386405 10265.61078758327 19039.099955048463 10346.315246245325 19039.099955048463 10445.86924121332 Z M18807.0 10620.0 "></path><path id="phPRI1AnL" d="M20444.915900106484 10445.551456770758 C 20444.915900106484 10545.259310507918 20364.086714268185 10626.088496346214 20264.378860531026 10626.088496346214 20164.671006793866 10626.088496346214 20083.841820955568 10545.259310507918 20083.841820955568 10445.551456770758 20083.841820955568 10345.843603033598 20164.671006793866 10265.014417195302 20264.378860531026 10265.014417195302 20364.086714268185 10265.014417195302 20444.915900106484 10345.843603033598 20444.915900106484 10445.551456770758 Z M20195.0 10611.0 "></path><path id="pwQvBd4vV" d="M19737.413210161852 10336.791603712296 C 19737.413210161852 10436.456724040094 19656.61866659653 10517.251267605416 19556.95354626873 10517.251267605416 19457.288425940933 10517.251267605416 19376.49388237561 10436.456724040094 19376.49388237561 10336.791603712296 19376.49388237561 10237.126483384498 19457.288425940933 10156.331939819176 19556.95354626873 10156.331939819176 19656.61866659653 10156.331939819176 19737.413210161852 10237.126483384498 19737.413210161852 10336.791603712296 Z M19490.0 10505.0 "></path><path id="p10jxLTYu0" d="M 16728 10479 c -21 -12 -24 -59 -6 -77 20 -20 56 -14 74 13 15 23 15 27 0 50 -17 26 -40 31 -68 14 z "></path><path id="p3fKtuwZm" d="M 22322 10468 c -7 -7 -12 -24 -12 -38 0 -53 57 -69 86 -25 15 23 15 27 0 50 -18 27 -54 33 -74 13 z "></path><path id="phu6JbfzF" d="M18365.223676378384 10259.716893474842 C 18365.223676378384 10337.359980215173 18302.281518344003 10400.30213824955 18224.638431603675 10400.30213824955 18146.995344863346 10400.30213824955 18084.053186828965 10337.359980215173 18084.053186828965 10259.716893474842 18084.053186828965 10182.073806734512 18146.995344863346 10119.131648700135 18224.638431603675 10119.131648700135 18302.281518344003 10119.131648700135 18365.223676378384 10182.073806734512 18365.223676378384 10259.716893474842 Z M18153.0 10380.0 "></path><path id="pEExFrbVZ" d="M21033.093561514404 10259.99685744168 C 21033.093561514404 10337.892924504948 20969.946322407974 10401.040163611377 20892.050255344708 10401.040163611377 20814.15418828144 10401.040163611377 20751.00694917501 10337.892924504948 20751.00694917501 10259.99685744168 20751.00694917501 10182.100790378412 20814.15418828144 10118.953551271983 20892.050255344708 10118.953551271983 20969.946322407974 10118.953551271983 21033.093561514404 10182.100790378412 21033.093561514404 10259.99685744168 Z M20840.0 10393.0 "></path><path id="p12ToM8N2B" d="M21687.65948805759 10276.639991247119 C 21687.65948805759 10327.506822642677 21646.423773780607 10368.742536919663 21595.556942385047 10368.742536919663 21544.690110989486 10368.742536919663 21503.454396712503 10327.506822642677 21503.454396712503 10276.639991247119 21503.454396712503 10225.77315985156 21544.690110989486 10184.537445574575 21595.556942385047 10184.537445574575 21646.423773780607 10184.537445574575 21687.65948805759 10225.77315985156 21687.65948805759 10276.639991247119 Z M21544.0 10353.0 "></path><path id="pjpRtCCSc" d="M17610.004359716033 10267.913931602143 C 17610.004359716033 10318.28893874638 17569.16734777111 10359.125950691305 17518.79234062687 10359.125950691305 17468.417333482634 10359.125950691305 17427.58032153771 10318.28893874638 17427.58032153771 10267.913931602143 17427.58032153771 10217.538924457906 17468.417333482634 10176.701912512981 17518.79234062687 10176.701912512981 17569.16734777111 10176.701912512981 17610.004359716033 10217.538924457906 17610.004359716033 10267.913931602143 Z M17456.0 10335.0 "></path><path id="pLcRGeiZh" d="M20157.28261862083 9981.390957359534 C 20157.28261862083 10059.399439219163 20094.044249316274 10122.637808523721 20016.035767456644 10122.637808523721 19938.027285597014 10122.637808523721 19874.78891629246 10059.399439219163 19874.78891629246 9981.390957359534 19874.78891629246 9903.382475499904 19938.027285597014 9840.144106195346 20016.035767456644 9840.144106195346 20094.044249316274 9840.144106195346 20157.28261862083 9903.382475499904 20157.28261862083 9981.390957359534 Z M19954.0 10111.0 "></path><path id="pgdQhICjx" d="M19242.62870615978 9957.524149476158 C 19242.62870615978 10035.522675288434 19179.39840782628 10098.752973621933 19101.399882014004 10098.752973621933 19023.401356201728 10098.752973621933 18960.17105786823 10035.522675288434 18960.17105786823 9957.524149476158 18960.17105786823 9879.525623663882 19023.401356201728 9816.295325330382 19101.399882014004 9816.295325330382 19179.39840782628 9816.295325330382 19242.62870615978 9879.525623663882 19242.62870615978 9957.524149476158 Z M19035.0 10081.0 "></path><path id="pwUaSOWDV" d="M18572.82237987687 9808.57419004689 C 18572.82237987687 9858.951487092138 18531.9835116004 9899.790355368608 18481.60621455515 9899.790355368608 18431.228917509903 9899.790355368608 18390.390049233432 9858.951487092138 18390.390049233432 9808.57419004689 18390.390049233432 9758.196893001641 18431.228917509903 9717.35802472517 18481.60621455515 9717.35802472517 18531.9835116004 9717.35802472517 18572.82237987687 9758.196893001641 18572.82237987687 9808.57419004689 Z M18416.0 9869.0 "></path><path id="p1HQdGwovV" d="M20746.99397622509 9809.180905534304 C 20746.99397622509 9859.86979890863 20705.902509214964 9900.961265918757 20655.21361584064 9900.961265918757 20604.524722466314 9900.961265918757 20563.433255456188 9859.86979890863 20563.433255456188 9809.180905534304 20563.433255456188 9758.492012159977 20604.524722466314 9717.40054514985 20655.21361584064 9717.40054514985 20705.902509214964 9717.40054514985 20746.99397622509 9758.492012159977 20746.99397622509 9809.180905534304 Z M20607.0 9889.0 "></path><path id="p12BasQB1h" d="M17774.42016632246 9761.351596624665 C 17774.42016632246 9788.058125122876 17752.770247342476 9809.708044102861 17726.063718844263 9809.708044102861 17699.35719034605 9809.708044102861 17677.707271366067 9788.058125122876 17677.707271366067 9761.351596624665 17677.707271366067 9734.645068126454 17699.35719034605 9712.995149146469 17726.063718844263 9712.995149146469 17752.770247342476 9712.995149146469 17774.42016632246 9734.645068126454 17774.42016632246 9761.351596624665 Z M17692.0 9798.0 "></path><path id="p1EjRd8d2a" d="M21440.65853453836 9760.118217138925 C 21440.65853453836 9787.10085371694 21418.784785734973 9808.974602520328 21391.80214915696 9808.974602520328 21364.819512578946 9808.974602520328 21342.94576377556 9787.10085371694 21342.94576377556 9760.118217138925 21342.94576377556 9733.13558056091 21364.819512578946 9711.261831757522 21391.80214915696 9711.261831757522 21418.784785734973 9711.261831757522 21440.65853453836 9733.13558056091 21440.65853453836 9760.118217138925 Z M21355.0 9790.0 "></path><path id="p14Zke1egq" d="M19640.186799934323 9657.25918711424 C 19640.186799934323 9707.91763995283 19599.120009854127 9748.984430033026 19548.461557015537 9748.984430033026 19497.803104176946 9748.984430033026 19456.73631409675 9707.91763995283 19456.73631409675 9657.25918711424 19456.73631409675 9606.60073427565 19497.803104176946 9565.533944195453 19548.461557015537 9565.533944195453 19599.120009854127 9565.533944195453 19640.186799934323 9606.60073427565 19640.186799934323 9657.25918711424 Z M19491.0 9729.0 "></path><path id="pOfxKKIO8" d="M18978.385922837042 9324.810644162268 C 18978.385922837042 9351.124438531238 18957.054377773733 9372.455983594551 18930.74058340476 9372.455983594551 18904.426789035788 9372.455983594551 18883.09524397248 9351.124438531238 18883.09524397248 9324.810644162268 18883.09524397248 9298.496849793297 18904.426789035788 9277.165304729984 18930.74058340476 9277.165304729984 18957.054377773733 9277.165304729984 18978.385922837042 9298.496849793297 18978.385922837042 9324.810644162268 Z M18890.0 9350.0 "></path><path id="piU5c1oLb" d="M 20153 9358 c -32 -41 -17 -78 32 -78 29 0 36 4 41 27 4 14 2 33 -3 42 -13 20 -57 26 -70 9 z "></path></g></g></svg>